G04 #@! TF.GenerationSoftware,KiCad,Pcbnew,(5.0.2)-1*
G04 #@! TF.CreationDate,2022-12-18T00:38:05+03:00*
G04 #@! TF.ProjectId,aks_mainboard,616b735f-6d61-4696-9e62-6f6172642e6b,rev?*
G04 #@! TF.SameCoordinates,Original*
G04 #@! TF.FileFunction,Copper,L1,Top*
G04 #@! TF.FilePolarity,Positive*
%FSLAX46Y46*%
G04 Gerber Fmt 4.6, Leading zero omitted, Abs format (unit mm)*
G04 Created by KiCad (PCBNEW (5.0.2)-1) date 18.12.2022 00:38:05*
%MOMM*%
%LPD*%
G01*
G04 APERTURE LIST*
G04 #@! TA.AperFunction,ComponentPad*
%ADD10C,2.400000*%
G04 #@! TD*
G04 #@! TA.AperFunction,ComponentPad*
%ADD11R,1.408000X1.408000*%
G04 #@! TD*
G04 #@! TA.AperFunction,ComponentPad*
%ADD12C,1.408000*%
G04 #@! TD*
G04 #@! TA.AperFunction,ComponentPad*
%ADD13C,2.499360*%
G04 #@! TD*
G04 #@! TA.AperFunction,ComponentPad*
%ADD14O,1.700000X1.700000*%
G04 #@! TD*
G04 #@! TA.AperFunction,ComponentPad*
%ADD15R,1.700000X1.700000*%
G04 #@! TD*
G04 #@! TA.AperFunction,ComponentPad*
%ADD16O,1.440000X2.000000*%
G04 #@! TD*
G04 #@! TA.AperFunction,ComponentPad*
%ADD17R,1.440000X2.000000*%
G04 #@! TD*
G04 #@! TA.AperFunction,ViaPad*
%ADD18C,0.800000*%
G04 #@! TD*
G04 #@! TA.AperFunction,Conductor*
%ADD19C,1.000000*%
G04 #@! TD*
G04 APERTURE END LIST*
D10*
G04 #@! TO.P,,1*
G04 #@! TO.N,N/C*
X122555000Y-163830000D03*
G04 #@! TD*
G04 #@! TO.P,,1*
G04 #@! TO.N,N/C*
X122555000Y-156845000D03*
G04 #@! TD*
G04 #@! TO.P,,1*
G04 #@! TO.N,N/C*
X104140000Y-58420000D03*
G04 #@! TD*
G04 #@! TO.P,,1*
G04 #@! TO.N,N/C*
X96520000Y-58420000D03*
G04 #@! TD*
G04 #@! TO.P,,1*
G04 #@! TO.N,N/C*
X203479400Y-82524600D03*
G04 #@! TD*
G04 #@! TO.P,,1*
G04 #@! TO.N,N/C*
X207010000Y-82550000D03*
G04 #@! TD*
G04 #@! TO.P,,1*
G04 #@! TO.N,N/C*
X199390000Y-88900000D03*
G04 #@! TD*
G04 #@! TO.P,,1*
G04 #@! TO.N,N/C*
X207010000Y-88900000D03*
G04 #@! TD*
D11*
G04 #@! TO.P,,1*
G04 #@! TO.N,N/C*
X85350000Y-158990000D03*
D12*
G04 #@! TO.P,,2*
X84330000Y-156450000D03*
G04 #@! TO.P,,3*
X83310000Y-158990000D03*
G04 #@! TO.P,,4*
X82290000Y-156450000D03*
G04 #@! TD*
G04 #@! TO.P,,4*
G04 #@! TO.N,N/C*
X98800000Y-156450000D03*
G04 #@! TO.P,,3*
X99820000Y-158990000D03*
G04 #@! TO.P,,2*
X100840000Y-156450000D03*
D11*
G04 #@! TO.P,,1*
X101860000Y-158990000D03*
G04 #@! TD*
D13*
G04 #@! TO.P,,1*
G04 #@! TO.N,N/C*
X121920000Y-48260000D03*
X127000000Y-48260000D03*
G04 #@! TD*
D14*
G04 #@! TO.P,,4*
G04 #@! TO.N,N/C*
X97313948Y-145984868D03*
G04 #@! TO.P,,3*
X97313948Y-143444868D03*
G04 #@! TO.P,,2*
X97313948Y-140904868D03*
D15*
G04 #@! TO.P,,1*
X97313948Y-138364868D03*
G04 #@! TD*
D13*
G04 #@! TO.P,,1*
G04 #@! TO.N,N/C*
X162560000Y-48260000D03*
X167640000Y-48260000D03*
G04 #@! TD*
G04 #@! TO.P,,1*
G04 #@! TO.N,N/C*
X116840000Y-48260000D03*
X111760000Y-48260000D03*
G04 #@! TD*
G04 #@! TO.P,,1*
G04 #@! TO.N,N/C*
X137160000Y-48260000D03*
X132080000Y-48260000D03*
G04 #@! TD*
G04 #@! TO.P,,1*
G04 #@! TO.N,N/C*
X147320000Y-48260000D03*
X142240000Y-48260000D03*
G04 #@! TD*
D11*
G04 #@! TO.P,,1*
G04 #@! TO.N,N/C*
X82236361Y-47716901D03*
D12*
G04 #@! TO.P,,2*
X83256361Y-50256901D03*
G04 #@! TO.P,,3*
X84276361Y-47716901D03*
G04 #@! TO.P,,4*
X85296361Y-50256901D03*
G04 #@! TD*
D11*
G04 #@! TO.P,,1*
G04 #@! TO.N,N/C*
X98746361Y-47716901D03*
D12*
G04 #@! TO.P,,2*
X99766361Y-50256901D03*
G04 #@! TO.P,,3*
X100786361Y-47716901D03*
G04 #@! TO.P,,4*
X101806361Y-50256901D03*
G04 #@! TD*
D11*
G04 #@! TO.P,,1*
G04 #@! TO.N,N/C*
X77230000Y-63600000D03*
D12*
G04 #@! TO.P,,2*
X79770000Y-62580000D03*
G04 #@! TO.P,,3*
X77230000Y-61560000D03*
G04 #@! TO.P,,4*
X79770000Y-60540000D03*
G04 #@! TD*
G04 #@! TO.P,,4*
G04 #@! TO.N,N/C*
X79770000Y-77210000D03*
G04 #@! TO.P,,3*
X77230000Y-78230000D03*
G04 #@! TO.P,,2*
X79770000Y-79250000D03*
D11*
G04 #@! TO.P,,1*
X77230000Y-80270000D03*
G04 #@! TD*
D12*
G04 #@! TO.P,,4*
G04 #@! TO.N,N/C*
X79770000Y-93720000D03*
G04 #@! TO.P,,3*
X77230000Y-94740000D03*
G04 #@! TO.P,,2*
X79770000Y-95760000D03*
D11*
G04 #@! TO.P,,1*
X77230000Y-96780000D03*
G04 #@! TD*
D12*
G04 #@! TO.P,,4*
G04 #@! TO.N,N/C*
X79770000Y-110230000D03*
G04 #@! TO.P,,3*
X77230000Y-111250000D03*
G04 #@! TO.P,,2*
X79770000Y-112270000D03*
D11*
G04 #@! TO.P,,1*
X77230000Y-113290000D03*
G04 #@! TD*
D12*
G04 #@! TO.P,,4*
G04 #@! TO.N,N/C*
X79770000Y-126740000D03*
G04 #@! TO.P,,3*
X77230000Y-127760000D03*
G04 #@! TO.P,,2*
X79770000Y-128780000D03*
D11*
G04 #@! TO.P,,1*
X77230000Y-129800000D03*
G04 #@! TD*
D12*
G04 #@! TO.P,,4*
G04 #@! TO.N,N/C*
X79770000Y-143250000D03*
G04 #@! TO.P,,3*
X77230000Y-144270000D03*
G04 #@! TO.P,,2*
X79770000Y-145290000D03*
D11*
G04 #@! TO.P,,1*
X77230000Y-146310000D03*
G04 #@! TD*
D10*
G04 #@! TO.P,,1*
G04 #@! TO.N,N/C*
X137160000Y-146050000D03*
G04 #@! TD*
D15*
G04 #@! TO.P,,1*
G04 #@! TO.N,N/C*
X161290000Y-121285000D03*
D14*
G04 #@! TO.P,,2*
X158750000Y-121285000D03*
G04 #@! TO.P,,3*
X156210000Y-121285000D03*
G04 #@! TO.P,,4*
X153670000Y-121285000D03*
G04 #@! TO.P,,5*
X151130000Y-121285000D03*
G04 #@! TO.P,,6*
X148590000Y-121285000D03*
G04 #@! TO.P,,7*
X146050000Y-121285000D03*
G04 #@! TO.P,,8*
X143510000Y-121285000D03*
G04 #@! TO.P,,9*
X140970000Y-121285000D03*
G04 #@! TO.P,,10*
X138430000Y-121285000D03*
G04 #@! TO.P,,11*
X135890000Y-121285000D03*
G04 #@! TO.P,,12*
X133350000Y-121285000D03*
G04 #@! TO.P,,13*
X130810000Y-121285000D03*
G04 #@! TO.P,,14*
X128270000Y-121285000D03*
G04 #@! TO.P,,15*
X125730000Y-121285000D03*
G04 #@! TO.P,,16*
X123190000Y-121285000D03*
G04 #@! TO.P,,17*
X120650000Y-121285000D03*
G04 #@! TO.P,,18*
X118110000Y-121285000D03*
G04 #@! TO.P,,19*
X115570000Y-121285000D03*
G04 #@! TO.P,,20*
X113030000Y-121285000D03*
G04 #@! TO.P,,21*
X110490000Y-121285000D03*
G04 #@! TO.P,,22*
X107950000Y-121285000D03*
G04 #@! TO.P,,23*
X105410000Y-121285000D03*
G04 #@! TO.P,,24*
X102870000Y-121285000D03*
G04 #@! TO.P,,25*
X100330000Y-121285000D03*
G04 #@! TD*
G04 #@! TO.P,,25*
G04 #@! TO.N,N/C*
X100330000Y-118745000D03*
G04 #@! TO.P,,24*
X102870000Y-118745000D03*
G04 #@! TO.P,,23*
X105410000Y-118745000D03*
G04 #@! TO.P,,22*
X107950000Y-118745000D03*
G04 #@! TO.P,,21*
X110490000Y-118745000D03*
G04 #@! TO.P,,20*
X113030000Y-118745000D03*
G04 #@! TO.P,,19*
X115570000Y-118745000D03*
G04 #@! TO.P,,18*
X118110000Y-118745000D03*
G04 #@! TO.P,,17*
X120650000Y-118745000D03*
G04 #@! TO.P,,16*
X123190000Y-118745000D03*
G04 #@! TO.P,,15*
X125730000Y-118745000D03*
G04 #@! TO.P,,14*
X128270000Y-118745000D03*
G04 #@! TO.P,,13*
X130810000Y-118745000D03*
G04 #@! TO.P,,12*
X133350000Y-118745000D03*
G04 #@! TO.P,,11*
X135890000Y-118745000D03*
G04 #@! TO.P,,10*
X138430000Y-118745000D03*
G04 #@! TO.P,,9*
X140970000Y-118745000D03*
G04 #@! TO.P,,8*
X143510000Y-118745000D03*
G04 #@! TO.P,,7*
X146050000Y-118745000D03*
G04 #@! TO.P,,6*
X148590000Y-118745000D03*
G04 #@! TO.P,,5*
X151130000Y-118745000D03*
G04 #@! TO.P,,4*
X153670000Y-118745000D03*
G04 #@! TO.P,,3*
X156210000Y-118745000D03*
G04 #@! TO.P,,2*
X158750000Y-118745000D03*
D15*
G04 #@! TO.P,,1*
X161290000Y-118745000D03*
G04 #@! TD*
G04 #@! TO.P,,1*
G04 #@! TO.N,N/C*
X161290000Y-67945000D03*
D14*
G04 #@! TO.P,,2*
X158750000Y-67945000D03*
G04 #@! TO.P,,3*
X156210000Y-67945000D03*
G04 #@! TO.P,,4*
X153670000Y-67945000D03*
G04 #@! TO.P,,5*
X151130000Y-67945000D03*
G04 #@! TO.P,,6*
X148590000Y-67945000D03*
G04 #@! TO.P,,7*
X146050000Y-67945000D03*
G04 #@! TO.P,,8*
X143510000Y-67945000D03*
G04 #@! TO.P,,9*
X140970000Y-67945000D03*
G04 #@! TO.P,,10*
X138430000Y-67945000D03*
G04 #@! TO.P,,11*
X135890000Y-67945000D03*
G04 #@! TO.P,,12*
X133350000Y-67945000D03*
G04 #@! TO.P,,13*
X130810000Y-67945000D03*
G04 #@! TO.P,,14*
X128270000Y-67945000D03*
G04 #@! TO.P,,15*
X125730000Y-67945000D03*
G04 #@! TO.P,,16*
X123190000Y-67945000D03*
G04 #@! TO.P,,17*
X120650000Y-67945000D03*
G04 #@! TO.P,,18*
X118110000Y-67945000D03*
G04 #@! TO.P,,19*
X115570000Y-67945000D03*
G04 #@! TO.P,,20*
X113030000Y-67945000D03*
G04 #@! TO.P,,21*
X110490000Y-67945000D03*
G04 #@! TO.P,,22*
X107950000Y-67945000D03*
G04 #@! TO.P,,23*
X105410000Y-67945000D03*
G04 #@! TO.P,,24*
X102870000Y-67945000D03*
G04 #@! TO.P,,25*
X100330000Y-67945000D03*
G04 #@! TD*
G04 #@! TO.P,,25*
G04 #@! TO.N,N/C*
X100330000Y-70485000D03*
G04 #@! TO.P,,24*
X102870000Y-70485000D03*
G04 #@! TO.P,,23*
X105410000Y-70485000D03*
G04 #@! TO.P,,22*
X107950000Y-70485000D03*
G04 #@! TO.P,,21*
X110490000Y-70485000D03*
G04 #@! TO.P,,20*
X113030000Y-70485000D03*
G04 #@! TO.P,,19*
X115570000Y-70485000D03*
G04 #@! TO.P,,18*
X118110000Y-70485000D03*
G04 #@! TO.P,,17*
X120650000Y-70485000D03*
G04 #@! TO.P,,16*
X123190000Y-70485000D03*
G04 #@! TO.P,,15*
X125730000Y-70485000D03*
G04 #@! TO.P,,14*
X128270000Y-70485000D03*
G04 #@! TO.P,,13*
X130810000Y-70485000D03*
G04 #@! TO.P,,12*
X133350000Y-70485000D03*
G04 #@! TO.P,,11*
X135890000Y-70485000D03*
G04 #@! TO.P,,10*
X138430000Y-70485000D03*
G04 #@! TO.P,,9*
X140970000Y-70485000D03*
G04 #@! TO.P,,8*
X143510000Y-70485000D03*
G04 #@! TO.P,,7*
X146050000Y-70485000D03*
G04 #@! TO.P,,6*
X148590000Y-70485000D03*
G04 #@! TO.P,,5*
X151130000Y-70485000D03*
G04 #@! TO.P,,4*
X153670000Y-70485000D03*
G04 #@! TO.P,,3*
X156210000Y-70485000D03*
G04 #@! TO.P,,2*
X158750000Y-70485000D03*
D15*
G04 #@! TO.P,,1*
X161290000Y-70485000D03*
G04 #@! TD*
D14*
G04 #@! TO.P,,2*
G04 #@! TO.N,N/C*
X190500000Y-121285000D03*
D15*
G04 #@! TO.P,,1*
X193040000Y-121285000D03*
G04 #@! TD*
D14*
G04 #@! TO.P,,2*
G04 #@! TO.N,N/C*
X190500000Y-67945000D03*
D15*
G04 #@! TO.P,,1*
X193040000Y-67945000D03*
G04 #@! TD*
D14*
G04 #@! TO.P,,7*
G04 #@! TO.N,N/C*
X213360000Y-103505000D03*
G04 #@! TO.P,,6*
X213360000Y-100965000D03*
G04 #@! TO.P,,5*
X213360000Y-98425000D03*
G04 #@! TO.P,,4*
X213360000Y-95885000D03*
G04 #@! TO.P,,3*
X213360000Y-93345000D03*
G04 #@! TO.P,,2*
X213360000Y-90805000D03*
D15*
G04 #@! TO.P,,1*
X213360000Y-88265000D03*
G04 #@! TD*
D13*
G04 #@! TO.P,,1*
G04 #@! TO.N,N/C*
X161290000Y-134620000D03*
X161290000Y-139700000D03*
G04 #@! TD*
D16*
G04 #@! TO.P,,13*
G04 #@! TO.N,N/C*
X110490000Y-146050000D03*
G04 #@! TO.P,,4*
X110490000Y-138430000D03*
G04 #@! TO.P,,14*
X113030000Y-146050000D03*
G04 #@! TO.P,,3*
X113030000Y-138430000D03*
G04 #@! TO.P,,15*
X115570000Y-146050000D03*
G04 #@! TO.P,,2*
X115570000Y-138430000D03*
G04 #@! TO.P,,16*
X118110000Y-146050000D03*
D17*
G04 #@! TO.P,,1*
X118110000Y-138430000D03*
G04 #@! TD*
D10*
G04 #@! TO.P,,1*
G04 #@! TO.N,N/C*
X137160000Y-153670000D03*
G04 #@! TD*
D13*
G04 #@! TO.P,,1*
G04 #@! TO.N,N/C*
X152400000Y-48260000D03*
X157480000Y-48260000D03*
G04 #@! TD*
D14*
G04 #@! TO.P,,4*
G04 #@! TO.N,N/C*
X193675000Y-142240000D03*
G04 #@! TO.P,,3*
X193675000Y-139700000D03*
G04 #@! TO.P,,2*
X193675000Y-137160000D03*
D15*
G04 #@! TO.P,,1*
X193675000Y-134620000D03*
G04 #@! TD*
D18*
G04 #@! TO.N,*
X90170000Y-130810000D03*
X105410000Y-130810000D03*
X105410000Y-128270000D03*
X91440000Y-99060000D03*
X106045000Y-95885000D03*
X115570000Y-133350000D03*
X105410000Y-133350000D03*
X105410000Y-133350000D03*
X92075000Y-93345000D03*
X113030000Y-111760000D03*
X99060000Y-111760000D03*
X85725000Y-123190000D03*
X111734600Y-151130000D03*
X158750000Y-129540000D03*
X108980000Y-156450000D03*
G04 #@! TD*
D19*
G04 #@! TO.N,*
X153670000Y-67945000D02*
X153670000Y-57150000D01*
X153670000Y-57150000D02*
X151130000Y-54610000D01*
X151130000Y-54610000D02*
X140970000Y-54610000D01*
X140970000Y-54610000D02*
X137160000Y-50800000D01*
X137160000Y-50800000D02*
X137160000Y-48260000D01*
X132080000Y-49920000D02*
X132080000Y-48260000D01*
X151130000Y-59130000D02*
X149000000Y-57000000D01*
X132000000Y-50000000D02*
X132080000Y-49920000D01*
X151130000Y-67945000D02*
X151130000Y-59130000D01*
X149000000Y-57000000D02*
X140000000Y-57000000D01*
X140000000Y-57000000D02*
X134000000Y-51000000D01*
X134000000Y-51000000D02*
X133000000Y-51000000D01*
X133000000Y-51000000D02*
X132000000Y-50000000D01*
X127000000Y-51000000D02*
X127000000Y-48260000D01*
X148590000Y-60590000D02*
X147000000Y-59000000D01*
X148590000Y-67945000D02*
X148590000Y-60590000D01*
X147000000Y-59000000D02*
X139000000Y-59000000D01*
X139000000Y-59000000D02*
X133000000Y-53000000D01*
X133000000Y-53000000D02*
X129000000Y-53000000D01*
X129000000Y-53000000D02*
X127000000Y-51000000D01*
X121920000Y-50920000D02*
X121920000Y-48260000D01*
X123000000Y-52000000D02*
X121920000Y-50920000D01*
X125000000Y-52000000D02*
X123000000Y-52000000D01*
X146050000Y-62050000D02*
X145000000Y-61000000D01*
X146050000Y-67945000D02*
X146050000Y-62050000D01*
X138000000Y-61000000D02*
X132000000Y-55000000D01*
X132000000Y-55000000D02*
X128000000Y-55000000D01*
X145000000Y-61000000D02*
X138000000Y-61000000D01*
X128000000Y-55000000D02*
X125000000Y-52000000D01*
X120000000Y-54000000D02*
X116840000Y-50840000D01*
X124000000Y-54000000D02*
X120000000Y-54000000D01*
X143510000Y-64510000D02*
X142000000Y-63000000D01*
X142000000Y-63000000D02*
X137000000Y-63000000D01*
X116840000Y-50840000D02*
X116840000Y-48260000D01*
X137000000Y-63000000D02*
X131000000Y-57000000D01*
X131000000Y-57000000D02*
X127000000Y-57000000D01*
X143510000Y-67945000D02*
X143510000Y-64510000D01*
X127000000Y-57000000D02*
X124000000Y-54000000D01*
X111760000Y-50027314D02*
X111760000Y-48260000D01*
X114500000Y-51000000D02*
X112732686Y-51000000D01*
X119500000Y-56000000D02*
X114500000Y-51000000D01*
X140970000Y-67945000D02*
X140970000Y-65970000D01*
X140970000Y-65970000D02*
X140000000Y-65000000D01*
X123000000Y-56000000D02*
X119500000Y-56000000D01*
X140000000Y-65000000D02*
X136000000Y-65000000D01*
X136000000Y-65000000D02*
X130000000Y-59000000D01*
X130000000Y-59000000D02*
X126000000Y-59000000D01*
X112732686Y-51000000D02*
X111760000Y-50027314D01*
X126000000Y-59000000D02*
X123000000Y-56000000D01*
X118110000Y-121285000D02*
X118110000Y-125730000D01*
X97313948Y-145984868D02*
X105344868Y-145984868D01*
X105344868Y-145984868D02*
X109089736Y-142240000D01*
X109089736Y-142240000D02*
X111760000Y-142240000D01*
X111760000Y-142240000D02*
X113030000Y-140970000D01*
X113030000Y-140970000D02*
X113030000Y-138430000D01*
X114300000Y-142240000D02*
X113030000Y-140970000D01*
X110490000Y-146050000D02*
X110490000Y-149860000D01*
X110490000Y-149860000D02*
X110490000Y-152400000D01*
X110490000Y-152400000D02*
X111760000Y-153670000D01*
X111760000Y-153670000D02*
X137160000Y-153670000D01*
X137160000Y-146050000D02*
X137160000Y-142240000D01*
X151130000Y-142240000D02*
X137160000Y-142240000D01*
X137160000Y-142240000D02*
X114300000Y-142240000D01*
X151130000Y-142240000D02*
X151130000Y-140970000D01*
X151130000Y-140970000D02*
X157480000Y-134620000D01*
X157480000Y-134620000D02*
X161290000Y-134620000D01*
X161290000Y-134620000D02*
X161290000Y-121285000D01*
X90170000Y-130810000D02*
X90170000Y-130810000D01*
X105410000Y-130810000D02*
X118110000Y-130810000D01*
X118110000Y-138430000D02*
X118110000Y-130810000D01*
X118110000Y-130810000D02*
X118110000Y-125730000D01*
X215900000Y-98425000D02*
X213360000Y-98425000D01*
X217043000Y-97282000D02*
X215900000Y-98425000D01*
X217043000Y-86487000D02*
X217043000Y-97282000D01*
X207010000Y-82550000D02*
X213106000Y-82550000D01*
X213106000Y-82550000D02*
X217043000Y-86487000D01*
X203479400Y-82524600D02*
X200685400Y-82524600D01*
X200685400Y-82524600D02*
X199390000Y-83820000D01*
X199390000Y-83820000D02*
X199390000Y-88900000D01*
X161290000Y-118745000D02*
X208915000Y-118745000D01*
X213360000Y-114300000D02*
X213360000Y-103505000D01*
X208915000Y-118745000D02*
X213360000Y-114300000D01*
X158750000Y-118745000D02*
X158750000Y-115570000D01*
X158750000Y-115570000D02*
X160020000Y-114300000D01*
X160020000Y-114300000D02*
X205740000Y-114300000D01*
X205740000Y-114300000D02*
X209550000Y-110490000D01*
X209550000Y-110490000D02*
X209550000Y-102870000D01*
X211455000Y-100965000D02*
X213360000Y-100965000D01*
X209550000Y-102870000D02*
X211455000Y-100965000D01*
X107950000Y-121285000D02*
X107950000Y-125730000D01*
X107950000Y-125730000D02*
X105410000Y-128270000D01*
X105410000Y-128270000D02*
X105410000Y-128270000D01*
X110490000Y-118745000D02*
X110490000Y-100330000D01*
X117475000Y-93345000D02*
X161290000Y-93345000D01*
X110490000Y-100330000D02*
X117475000Y-93345000D01*
X161290000Y-93345000D02*
X161036000Y-93345000D01*
X94615000Y-95885000D02*
X106045000Y-95885000D01*
X91440000Y-99060000D02*
X94615000Y-95885000D01*
X115570000Y-133350000D02*
X105410000Y-133350000D01*
X105410000Y-133350000D02*
X105410000Y-133350000D01*
X105410000Y-133350000D02*
X105410000Y-133350000D01*
X117475000Y-93345000D02*
X92075000Y-93345000D01*
X92075000Y-93345000D02*
X92075000Y-93345000D01*
X208280000Y-93345000D02*
X161290000Y-93345000D01*
X209617919Y-93345000D02*
X208280000Y-93345000D01*
X212157919Y-95885000D02*
X209617919Y-93345000D01*
X213360000Y-95885000D02*
X212157919Y-95885000D01*
X97313948Y-140904868D02*
X98994868Y-140904868D01*
X98994868Y-140904868D02*
X99060000Y-140970000D01*
X100330000Y-140970000D02*
X102870000Y-138430000D01*
X99060000Y-140970000D02*
X100330000Y-140970000D01*
X102870000Y-121285000D02*
X102870000Y-138430000D01*
X95445396Y-143444868D02*
X97313948Y-143444868D01*
X102870000Y-115570000D02*
X101600000Y-114300000D01*
X101600000Y-114300000D02*
X95250000Y-114300000D01*
X102870000Y-118745000D02*
X102870000Y-115570000D01*
X95250000Y-114300000D02*
X94110264Y-115439736D01*
X94110264Y-115439736D02*
X94110264Y-142109736D01*
X94110264Y-142109736D02*
X95445396Y-143444868D01*
X120650000Y-121285000D02*
X120650000Y-122487081D01*
X161290000Y-134620000D02*
X193675000Y-134620000D01*
X118110000Y-118745000D02*
X118110000Y-113030000D01*
X118110000Y-113030000D02*
X116840000Y-111760000D01*
X116840000Y-111760000D02*
X113030000Y-111760000D01*
X113030000Y-111760000D02*
X113030000Y-111760000D01*
X118110000Y-72390000D02*
X118110000Y-70485000D01*
X115570000Y-74930000D02*
X118110000Y-72390000D01*
X95250000Y-74930000D02*
X115570000Y-74930000D01*
X99060000Y-111760000D02*
X89408000Y-111760000D01*
X90170000Y-111760000D02*
X89408000Y-111760000D01*
X89408000Y-111760000D02*
X90170000Y-111760000D01*
X83820000Y-86360000D02*
X88900000Y-81280000D01*
X83820000Y-124460000D02*
X83820000Y-86360000D01*
X90170000Y-130810000D02*
X83820000Y-124460000D01*
X87630000Y-82550000D02*
X88900000Y-81280000D01*
X88900000Y-81280000D02*
X95250000Y-74930000D01*
X89408000Y-111760000D02*
X88900000Y-111760000D01*
X88900000Y-111760000D02*
X87630000Y-111760000D01*
X87630000Y-111760000D02*
X86995000Y-111760000D01*
X86995000Y-111760000D02*
X85725000Y-113030000D01*
X85725000Y-113030000D02*
X85725000Y-123190000D01*
X85725000Y-123190000D02*
X85725000Y-123190000D01*
X170180000Y-151130000D02*
X181610000Y-139700000D01*
X111734600Y-151130000D02*
X170180000Y-151130000D01*
X184150000Y-139700000D02*
X193675000Y-139700000D01*
X184150000Y-139700000D02*
X185420000Y-139700000D01*
X181610000Y-139700000D02*
X184150000Y-139700000D01*
X120650000Y-122487081D02*
X120650000Y-125730000D01*
X120650000Y-125730000D02*
X123190000Y-128270000D01*
X123190000Y-128270000D02*
X124460000Y-129540000D01*
X124460000Y-129540000D02*
X158750000Y-129540000D01*
X158750000Y-129540000D02*
X158750000Y-129540000D01*
X108980000Y-156450000D02*
X108980000Y-161050000D01*
X108980000Y-161050000D02*
X111760000Y-163830000D01*
X111760000Y-163830000D02*
X122555000Y-163830000D01*
G04 #@! TD*
M02*
