G04 #@! TF.GenerationSoftware,KiCad,Pcbnew,(5.0.2)-1*
G04 #@! TF.CreationDate,2022-12-18T00:38:05+03:00*
G04 #@! TF.ProjectId,aks_mainboard,616b735f-6d61-4696-9e62-6f6172642e6b,rev?*
G04 #@! TF.SameCoordinates,Original*
G04 #@! TF.FileFunction,Copper,L2,Bot*
G04 #@! TF.FilePolarity,Positive*
%FSLAX46Y46*%
G04 Gerber Fmt 4.6, Leading zero omitted, Abs format (unit mm)*
G04 Created by KiCad (PCBNEW (5.0.2)-1) date 18.12.2022 00:38:05*
%MOMM*%
%LPD*%
G01*
G04 APERTURE LIST*
G04 #@! TA.AperFunction,ComponentPad*
%ADD10C,2.400000*%
G04 #@! TD*
G04 #@! TA.AperFunction,ComponentPad*
%ADD11R,1.408000X1.408000*%
G04 #@! TD*
G04 #@! TA.AperFunction,ComponentPad*
%ADD12C,1.408000*%
G04 #@! TD*
G04 #@! TA.AperFunction,ComponentPad*
%ADD13C,2.499360*%
G04 #@! TD*
G04 #@! TA.AperFunction,ComponentPad*
%ADD14O,1.700000X1.700000*%
G04 #@! TD*
G04 #@! TA.AperFunction,ComponentPad*
%ADD15R,1.700000X1.700000*%
G04 #@! TD*
G04 #@! TA.AperFunction,ComponentPad*
%ADD16O,1.440000X2.000000*%
G04 #@! TD*
G04 #@! TA.AperFunction,ComponentPad*
%ADD17R,1.440000X2.000000*%
G04 #@! TD*
G04 #@! TA.AperFunction,ViaPad*
%ADD18C,0.800000*%
G04 #@! TD*
G04 #@! TA.AperFunction,Conductor*
%ADD19C,1.000000*%
G04 #@! TD*
G04 APERTURE END LIST*
D10*
G04 #@! TO.P,,1*
G04 #@! TO.N,N/C*
X122555000Y-163830000D03*
G04 #@! TD*
G04 #@! TO.P,,1*
G04 #@! TO.N,N/C*
X122555000Y-156845000D03*
G04 #@! TD*
G04 #@! TO.P,,1*
G04 #@! TO.N,N/C*
X104140000Y-58420000D03*
G04 #@! TD*
G04 #@! TO.P,,1*
G04 #@! TO.N,N/C*
X96520000Y-58420000D03*
G04 #@! TD*
G04 #@! TO.P,,1*
G04 #@! TO.N,N/C*
X203479400Y-82524600D03*
G04 #@! TD*
G04 #@! TO.P,,1*
G04 #@! TO.N,N/C*
X207010000Y-82550000D03*
G04 #@! TD*
G04 #@! TO.P,,1*
G04 #@! TO.N,N/C*
X199390000Y-88900000D03*
G04 #@! TD*
G04 #@! TO.P,,1*
G04 #@! TO.N,N/C*
X207010000Y-88900000D03*
G04 #@! TD*
D11*
G04 #@! TO.P,,1*
G04 #@! TO.N,N/C*
X85350000Y-158990000D03*
D12*
G04 #@! TO.P,,2*
X84330000Y-156450000D03*
G04 #@! TO.P,,3*
X83310000Y-158990000D03*
G04 #@! TO.P,,4*
X82290000Y-156450000D03*
G04 #@! TD*
G04 #@! TO.P,,4*
G04 #@! TO.N,N/C*
X98800000Y-156450000D03*
G04 #@! TO.P,,3*
X99820000Y-158990000D03*
G04 #@! TO.P,,2*
X100840000Y-156450000D03*
D11*
G04 #@! TO.P,,1*
X101860000Y-158990000D03*
G04 #@! TD*
D13*
G04 #@! TO.P,,1*
G04 #@! TO.N,N/C*
X121920000Y-48260000D03*
X127000000Y-48260000D03*
G04 #@! TD*
D14*
G04 #@! TO.P,,4*
G04 #@! TO.N,N/C*
X97313948Y-145984868D03*
G04 #@! TO.P,,3*
X97313948Y-143444868D03*
G04 #@! TO.P,,2*
X97313948Y-140904868D03*
D15*
G04 #@! TO.P,,1*
X97313948Y-138364868D03*
G04 #@! TD*
D13*
G04 #@! TO.P,,1*
G04 #@! TO.N,N/C*
X162560000Y-48260000D03*
X167640000Y-48260000D03*
G04 #@! TD*
G04 #@! TO.P,,1*
G04 #@! TO.N,N/C*
X116840000Y-48260000D03*
X111760000Y-48260000D03*
G04 #@! TD*
G04 #@! TO.P,,1*
G04 #@! TO.N,N/C*
X137160000Y-48260000D03*
X132080000Y-48260000D03*
G04 #@! TD*
G04 #@! TO.P,,1*
G04 #@! TO.N,N/C*
X147320000Y-48260000D03*
X142240000Y-48260000D03*
G04 #@! TD*
D11*
G04 #@! TO.P,,1*
G04 #@! TO.N,N/C*
X82236361Y-47716901D03*
D12*
G04 #@! TO.P,,2*
X83256361Y-50256901D03*
G04 #@! TO.P,,3*
X84276361Y-47716901D03*
G04 #@! TO.P,,4*
X85296361Y-50256901D03*
G04 #@! TD*
D11*
G04 #@! TO.P,,1*
G04 #@! TO.N,N/C*
X98746361Y-47716901D03*
D12*
G04 #@! TO.P,,2*
X99766361Y-50256901D03*
G04 #@! TO.P,,3*
X100786361Y-47716901D03*
G04 #@! TO.P,,4*
X101806361Y-50256901D03*
G04 #@! TD*
D11*
G04 #@! TO.P,,1*
G04 #@! TO.N,N/C*
X77230000Y-63600000D03*
D12*
G04 #@! TO.P,,2*
X79770000Y-62580000D03*
G04 #@! TO.P,,3*
X77230000Y-61560000D03*
G04 #@! TO.P,,4*
X79770000Y-60540000D03*
G04 #@! TD*
G04 #@! TO.P,,4*
G04 #@! TO.N,N/C*
X79770000Y-77210000D03*
G04 #@! TO.P,,3*
X77230000Y-78230000D03*
G04 #@! TO.P,,2*
X79770000Y-79250000D03*
D11*
G04 #@! TO.P,,1*
X77230000Y-80270000D03*
G04 #@! TD*
D12*
G04 #@! TO.P,,4*
G04 #@! TO.N,N/C*
X79770000Y-93720000D03*
G04 #@! TO.P,,3*
X77230000Y-94740000D03*
G04 #@! TO.P,,2*
X79770000Y-95760000D03*
D11*
G04 #@! TO.P,,1*
X77230000Y-96780000D03*
G04 #@! TD*
D12*
G04 #@! TO.P,,4*
G04 #@! TO.N,N/C*
X79770000Y-110230000D03*
G04 #@! TO.P,,3*
X77230000Y-111250000D03*
G04 #@! TO.P,,2*
X79770000Y-112270000D03*
D11*
G04 #@! TO.P,,1*
X77230000Y-113290000D03*
G04 #@! TD*
D12*
G04 #@! TO.P,,4*
G04 #@! TO.N,N/C*
X79770000Y-126740000D03*
G04 #@! TO.P,,3*
X77230000Y-127760000D03*
G04 #@! TO.P,,2*
X79770000Y-128780000D03*
D11*
G04 #@! TO.P,,1*
X77230000Y-129800000D03*
G04 #@! TD*
D12*
G04 #@! TO.P,,4*
G04 #@! TO.N,N/C*
X79770000Y-143250000D03*
G04 #@! TO.P,,3*
X77230000Y-144270000D03*
G04 #@! TO.P,,2*
X79770000Y-145290000D03*
D11*
G04 #@! TO.P,,1*
X77230000Y-146310000D03*
G04 #@! TD*
D10*
G04 #@! TO.P,,1*
G04 #@! TO.N,N/C*
X137160000Y-146050000D03*
G04 #@! TD*
D15*
G04 #@! TO.P,,1*
G04 #@! TO.N,N/C*
X161290000Y-121285000D03*
D14*
G04 #@! TO.P,,2*
X158750000Y-121285000D03*
G04 #@! TO.P,,3*
X156210000Y-121285000D03*
G04 #@! TO.P,,4*
X153670000Y-121285000D03*
G04 #@! TO.P,,5*
X151130000Y-121285000D03*
G04 #@! TO.P,,6*
X148590000Y-121285000D03*
G04 #@! TO.P,,7*
X146050000Y-121285000D03*
G04 #@! TO.P,,8*
X143510000Y-121285000D03*
G04 #@! TO.P,,9*
X140970000Y-121285000D03*
G04 #@! TO.P,,10*
X138430000Y-121285000D03*
G04 #@! TO.P,,11*
X135890000Y-121285000D03*
G04 #@! TO.P,,12*
X133350000Y-121285000D03*
G04 #@! TO.P,,13*
X130810000Y-121285000D03*
G04 #@! TO.P,,14*
X128270000Y-121285000D03*
G04 #@! TO.P,,15*
X125730000Y-121285000D03*
G04 #@! TO.P,,16*
X123190000Y-121285000D03*
G04 #@! TO.P,,17*
X120650000Y-121285000D03*
G04 #@! TO.P,,18*
X118110000Y-121285000D03*
G04 #@! TO.P,,19*
X115570000Y-121285000D03*
G04 #@! TO.P,,20*
X113030000Y-121285000D03*
G04 #@! TO.P,,21*
X110490000Y-121285000D03*
G04 #@! TO.P,,22*
X107950000Y-121285000D03*
G04 #@! TO.P,,23*
X105410000Y-121285000D03*
G04 #@! TO.P,,24*
X102870000Y-121285000D03*
G04 #@! TO.P,,25*
X100330000Y-121285000D03*
G04 #@! TD*
G04 #@! TO.P,,25*
G04 #@! TO.N,N/C*
X100330000Y-118745000D03*
G04 #@! TO.P,,24*
X102870000Y-118745000D03*
G04 #@! TO.P,,23*
X105410000Y-118745000D03*
G04 #@! TO.P,,22*
X107950000Y-118745000D03*
G04 #@! TO.P,,21*
X110490000Y-118745000D03*
G04 #@! TO.P,,20*
X113030000Y-118745000D03*
G04 #@! TO.P,,19*
X115570000Y-118745000D03*
G04 #@! TO.P,,18*
X118110000Y-118745000D03*
G04 #@! TO.P,,17*
X120650000Y-118745000D03*
G04 #@! TO.P,,16*
X123190000Y-118745000D03*
G04 #@! TO.P,,15*
X125730000Y-118745000D03*
G04 #@! TO.P,,14*
X128270000Y-118745000D03*
G04 #@! TO.P,,13*
X130810000Y-118745000D03*
G04 #@! TO.P,,12*
X133350000Y-118745000D03*
G04 #@! TO.P,,11*
X135890000Y-118745000D03*
G04 #@! TO.P,,10*
X138430000Y-118745000D03*
G04 #@! TO.P,,9*
X140970000Y-118745000D03*
G04 #@! TO.P,,8*
X143510000Y-118745000D03*
G04 #@! TO.P,,7*
X146050000Y-118745000D03*
G04 #@! TO.P,,6*
X148590000Y-118745000D03*
G04 #@! TO.P,,5*
X151130000Y-118745000D03*
G04 #@! TO.P,,4*
X153670000Y-118745000D03*
G04 #@! TO.P,,3*
X156210000Y-118745000D03*
G04 #@! TO.P,,2*
X158750000Y-118745000D03*
D15*
G04 #@! TO.P,,1*
X161290000Y-118745000D03*
G04 #@! TD*
G04 #@! TO.P,,1*
G04 #@! TO.N,N/C*
X161290000Y-67945000D03*
D14*
G04 #@! TO.P,,2*
X158750000Y-67945000D03*
G04 #@! TO.P,,3*
X156210000Y-67945000D03*
G04 #@! TO.P,,4*
X153670000Y-67945000D03*
G04 #@! TO.P,,5*
X151130000Y-67945000D03*
G04 #@! TO.P,,6*
X148590000Y-67945000D03*
G04 #@! TO.P,,7*
X146050000Y-67945000D03*
G04 #@! TO.P,,8*
X143510000Y-67945000D03*
G04 #@! TO.P,,9*
X140970000Y-67945000D03*
G04 #@! TO.P,,10*
X138430000Y-67945000D03*
G04 #@! TO.P,,11*
X135890000Y-67945000D03*
G04 #@! TO.P,,12*
X133350000Y-67945000D03*
G04 #@! TO.P,,13*
X130810000Y-67945000D03*
G04 #@! TO.P,,14*
X128270000Y-67945000D03*
G04 #@! TO.P,,15*
X125730000Y-67945000D03*
G04 #@! TO.P,,16*
X123190000Y-67945000D03*
G04 #@! TO.P,,17*
X120650000Y-67945000D03*
G04 #@! TO.P,,18*
X118110000Y-67945000D03*
G04 #@! TO.P,,19*
X115570000Y-67945000D03*
G04 #@! TO.P,,20*
X113030000Y-67945000D03*
G04 #@! TO.P,,21*
X110490000Y-67945000D03*
G04 #@! TO.P,,22*
X107950000Y-67945000D03*
G04 #@! TO.P,,23*
X105410000Y-67945000D03*
G04 #@! TO.P,,24*
X102870000Y-67945000D03*
G04 #@! TO.P,,25*
X100330000Y-67945000D03*
G04 #@! TD*
G04 #@! TO.P,,25*
G04 #@! TO.N,N/C*
X100330000Y-70485000D03*
G04 #@! TO.P,,24*
X102870000Y-70485000D03*
G04 #@! TO.P,,23*
X105410000Y-70485000D03*
G04 #@! TO.P,,22*
X107950000Y-70485000D03*
G04 #@! TO.P,,21*
X110490000Y-70485000D03*
G04 #@! TO.P,,20*
X113030000Y-70485000D03*
G04 #@! TO.P,,19*
X115570000Y-70485000D03*
G04 #@! TO.P,,18*
X118110000Y-70485000D03*
G04 #@! TO.P,,17*
X120650000Y-70485000D03*
G04 #@! TO.P,,16*
X123190000Y-70485000D03*
G04 #@! TO.P,,15*
X125730000Y-70485000D03*
G04 #@! TO.P,,14*
X128270000Y-70485000D03*
G04 #@! TO.P,,13*
X130810000Y-70485000D03*
G04 #@! TO.P,,12*
X133350000Y-70485000D03*
G04 #@! TO.P,,11*
X135890000Y-70485000D03*
G04 #@! TO.P,,10*
X138430000Y-70485000D03*
G04 #@! TO.P,,9*
X140970000Y-70485000D03*
G04 #@! TO.P,,8*
X143510000Y-70485000D03*
G04 #@! TO.P,,7*
X146050000Y-70485000D03*
G04 #@! TO.P,,6*
X148590000Y-70485000D03*
G04 #@! TO.P,,5*
X151130000Y-70485000D03*
G04 #@! TO.P,,4*
X153670000Y-70485000D03*
G04 #@! TO.P,,3*
X156210000Y-70485000D03*
G04 #@! TO.P,,2*
X158750000Y-70485000D03*
D15*
G04 #@! TO.P,,1*
X161290000Y-70485000D03*
G04 #@! TD*
D14*
G04 #@! TO.P,,2*
G04 #@! TO.N,N/C*
X190500000Y-121285000D03*
D15*
G04 #@! TO.P,,1*
X193040000Y-121285000D03*
G04 #@! TD*
D14*
G04 #@! TO.P,,2*
G04 #@! TO.N,N/C*
X190500000Y-67945000D03*
D15*
G04 #@! TO.P,,1*
X193040000Y-67945000D03*
G04 #@! TD*
D14*
G04 #@! TO.P,,7*
G04 #@! TO.N,N/C*
X213360000Y-103505000D03*
G04 #@! TO.P,,6*
X213360000Y-100965000D03*
G04 #@! TO.P,,5*
X213360000Y-98425000D03*
G04 #@! TO.P,,4*
X213360000Y-95885000D03*
G04 #@! TO.P,,3*
X213360000Y-93345000D03*
G04 #@! TO.P,,2*
X213360000Y-90805000D03*
D15*
G04 #@! TO.P,,1*
X213360000Y-88265000D03*
G04 #@! TD*
D13*
G04 #@! TO.P,,1*
G04 #@! TO.N,N/C*
X161290000Y-134620000D03*
X161290000Y-139700000D03*
G04 #@! TD*
D16*
G04 #@! TO.P,,13*
G04 #@! TO.N,N/C*
X110490000Y-146050000D03*
G04 #@! TO.P,,4*
X110490000Y-138430000D03*
G04 #@! TO.P,,14*
X113030000Y-146050000D03*
G04 #@! TO.P,,3*
X113030000Y-138430000D03*
G04 #@! TO.P,,15*
X115570000Y-146050000D03*
G04 #@! TO.P,,2*
X115570000Y-138430000D03*
G04 #@! TO.P,,16*
X118110000Y-146050000D03*
D17*
G04 #@! TO.P,,1*
X118110000Y-138430000D03*
G04 #@! TD*
D10*
G04 #@! TO.P,,1*
G04 #@! TO.N,N/C*
X137160000Y-153670000D03*
G04 #@! TD*
D13*
G04 #@! TO.P,,1*
G04 #@! TO.N,N/C*
X152400000Y-48260000D03*
X157480000Y-48260000D03*
G04 #@! TD*
D14*
G04 #@! TO.P,,4*
G04 #@! TO.N,N/C*
X193675000Y-142240000D03*
G04 #@! TO.P,,3*
X193675000Y-139700000D03*
G04 #@! TO.P,,2*
X193675000Y-137160000D03*
D15*
G04 #@! TO.P,,1*
X193675000Y-134620000D03*
G04 #@! TD*
D18*
G04 #@! TO.N,*
X90170000Y-130810000D03*
X105410000Y-130810000D03*
X105410000Y-128270000D03*
X91440000Y-99060000D03*
X106045000Y-95885000D03*
X115570000Y-133350000D03*
X105410000Y-133350000D03*
X105410000Y-133350000D03*
X92075000Y-93345000D03*
X113030000Y-111760000D03*
X99060000Y-111760000D03*
X85725000Y-123190000D03*
X111734600Y-151130000D03*
X158750000Y-129540000D03*
X108980000Y-156450000D03*
G04 #@! TD*
D19*
G04 #@! TO.N,*
X213299700Y-98485300D02*
X213360000Y-98425000D01*
X215900000Y-103505000D02*
X213360000Y-103505000D01*
X217170000Y-102235000D02*
X215900000Y-103505000D01*
X217170000Y-88900000D02*
X217170000Y-102235000D01*
X213360000Y-88265000D02*
X216535000Y-88265000D01*
X216535000Y-88265000D02*
X217170000Y-88900000D01*
X185928000Y-95885000D02*
X200914000Y-95885000D01*
X200914000Y-95885000D02*
X199390000Y-95885000D01*
X170180000Y-95885000D02*
X185928000Y-95885000D01*
X101606361Y-50456901D02*
X101806361Y-50256901D01*
X100586361Y-47916901D02*
X100786361Y-47716901D01*
X142240000Y-55880000D02*
X142240000Y-48260000D01*
X149860000Y-63500000D02*
X142240000Y-55880000D01*
X165100000Y-63500000D02*
X149860000Y-63500000D01*
X153670000Y-70485000D02*
X153670000Y-73660000D01*
X153670000Y-73660000D02*
X154940000Y-74930000D01*
X154940000Y-74930000D02*
X163830000Y-74930000D01*
X163830000Y-74930000D02*
X166370000Y-72390000D01*
X166370000Y-72390000D02*
X166370000Y-64770000D01*
X166370000Y-64770000D02*
X165100000Y-63500000D01*
X147320000Y-55880000D02*
X147320000Y-48260000D01*
X166370000Y-60960000D02*
X152400000Y-60960000D01*
X151130000Y-74930000D02*
X153670000Y-77470000D01*
X152400000Y-60960000D02*
X147320000Y-55880000D01*
X151130000Y-70485000D02*
X151130000Y-74930000D01*
X153670000Y-77470000D02*
X165100000Y-77470000D01*
X165100000Y-77470000D02*
X168910000Y-73660000D01*
X168910000Y-73660000D02*
X168910000Y-63500000D01*
X168910000Y-63500000D02*
X166370000Y-60960000D01*
X152400000Y-55880000D02*
X152400000Y-48260000D01*
X154940000Y-58420000D02*
X152400000Y-55880000D01*
X167640000Y-58420000D02*
X154940000Y-58420000D01*
X148590000Y-76200000D02*
X152400000Y-80010000D01*
X148590000Y-70485000D02*
X148590000Y-76200000D01*
X152400000Y-80010000D02*
X166370000Y-80010000D01*
X166370000Y-80010000D02*
X171450000Y-74930000D01*
X171450000Y-74930000D02*
X171450000Y-62230000D01*
X171450000Y-62230000D02*
X167640000Y-58420000D01*
X157480000Y-53340000D02*
X157480000Y-48260000D01*
X168910000Y-55880000D02*
X160020000Y-55880000D01*
X151130000Y-82550000D02*
X167640000Y-82550000D01*
X160020000Y-55880000D02*
X157480000Y-53340000D01*
X167640000Y-82550000D02*
X173990000Y-76200000D01*
X146050000Y-70485000D02*
X146050000Y-77470000D01*
X173990000Y-76200000D02*
X173990000Y-60960000D01*
X146050000Y-77470000D02*
X151130000Y-82550000D01*
X173990000Y-60960000D02*
X168910000Y-55880000D01*
X162560000Y-52070000D02*
X162560000Y-48260000D01*
X163830000Y-53340000D02*
X162560000Y-52070000D01*
X170180000Y-53340000D02*
X163830000Y-53340000D01*
X143510000Y-78740000D02*
X149860000Y-85090000D01*
X149860000Y-85090000D02*
X168910000Y-85090000D01*
X168910000Y-85090000D02*
X176530000Y-77470000D01*
X143510000Y-70485000D02*
X143510000Y-78740000D01*
X176530000Y-77470000D02*
X176530000Y-59690000D01*
X176530000Y-59690000D02*
X170180000Y-53340000D01*
X140970000Y-80010000D02*
X148590000Y-87630000D01*
X140970000Y-70485000D02*
X140970000Y-80010000D01*
X148590000Y-87630000D02*
X170180000Y-87630000D01*
X170180000Y-87630000D02*
X179070000Y-78740000D01*
X167640000Y-48260000D02*
X167640000Y-49530000D01*
X167640000Y-49530000D02*
X168910000Y-50800000D01*
X168910000Y-50800000D02*
X171450000Y-50800000D01*
X171450000Y-50800000D02*
X179070000Y-58420000D01*
X115570000Y-140970000D02*
X115570000Y-138430000D01*
X116840000Y-142240000D02*
X115570000Y-140970000D01*
X101534868Y-138364868D02*
X97313948Y-138364868D01*
X116840000Y-142240000D02*
X105410000Y-142240000D01*
X105410000Y-142240000D02*
X101534868Y-138364868D01*
X119380000Y-114300000D02*
X120650000Y-115570000D01*
X99060000Y-114300000D02*
X119380000Y-114300000D01*
X110490000Y-130810000D02*
X105410000Y-125730000D01*
X120650000Y-115570000D02*
X120650000Y-118745000D01*
X110490000Y-138430000D02*
X110490000Y-130810000D01*
X105410000Y-125730000D02*
X99060000Y-125730000D01*
X99060000Y-125730000D02*
X96520000Y-123190000D01*
X96520000Y-116840000D02*
X99060000Y-114300000D01*
X158750000Y-137160000D02*
X158750000Y-138430000D01*
X158750000Y-138430000D02*
X160020000Y-139700000D01*
X108980000Y-156450000D02*
X108980000Y-156450000D01*
X113030000Y-146050000D02*
X113030000Y-152400000D01*
X113030000Y-152400000D02*
X108980000Y-156450000D01*
X115570000Y-146050000D02*
X115570000Y-153670000D01*
X110250000Y-158990000D02*
X99820000Y-158990000D01*
X99820000Y-158990000D02*
X83310000Y-158990000D01*
X83310000Y-158990000D02*
X81520000Y-158990000D01*
X77230000Y-154700000D02*
X77230000Y-144270000D01*
X81520000Y-158990000D02*
X77230000Y-154700000D01*
X77030000Y-61400000D02*
X77030000Y-61560000D01*
X77230000Y-144270000D02*
X77230000Y-61200000D01*
X77230000Y-61200000D02*
X77030000Y-61400000D01*
X77230000Y-61560000D02*
X77230000Y-49770000D01*
X79283099Y-47716901D02*
X84276361Y-47716901D01*
X77230000Y-49770000D02*
X79283099Y-47716901D01*
X84276361Y-47716901D02*
X100786361Y-47716901D01*
X79770000Y-52310000D02*
X79770000Y-95760000D01*
X83256361Y-50256901D02*
X81823099Y-50256901D01*
X81823099Y-50256901D02*
X79770000Y-52310000D01*
X79770000Y-95760000D02*
X79770000Y-128780000D01*
X79770000Y-153930000D02*
X82290000Y-156450000D01*
X79770000Y-126740000D02*
X79770000Y-153930000D01*
X82290000Y-156450000D02*
X100840000Y-156450000D01*
X96520000Y-107950000D02*
X96520000Y-118110000D01*
X96520000Y-66040000D02*
X96520000Y-107950000D01*
X96520000Y-118110000D02*
X96520000Y-116840000D01*
X96520000Y-123190000D02*
X96520000Y-118110000D01*
X115570000Y-64770000D02*
X114300000Y-63500000D01*
X115570000Y-67945000D02*
X115570000Y-64770000D01*
X114300000Y-63500000D02*
X99060000Y-63500000D01*
X99060000Y-63500000D02*
X96520000Y-66040000D01*
X90170000Y-130810000D02*
X104140000Y-130810000D01*
X104140000Y-130810000D02*
X105410000Y-130810000D01*
X105410000Y-130810000D02*
X105410000Y-130810000D01*
X208915000Y-90805000D02*
X207010000Y-88900000D01*
X213360000Y-90805000D02*
X208915000Y-90805000D01*
X105410000Y-128270000D02*
X92710000Y-128270000D01*
X92710000Y-128270000D02*
X91440000Y-127000000D01*
X91440000Y-127000000D02*
X91440000Y-99060000D01*
X91440000Y-99060000D02*
X91440000Y-99060000D01*
X106045000Y-95885000D02*
X106045000Y-95885000D01*
X125730000Y-97155000D02*
X127000000Y-95885000D01*
X125730000Y-118745000D02*
X125730000Y-97155000D01*
X170180000Y-95885000D02*
X127000000Y-95885000D01*
X127000000Y-95885000D02*
X106045000Y-95885000D01*
X125730000Y-121285000D02*
X125730000Y-129540000D01*
X125730000Y-129540000D02*
X121920000Y-133350000D01*
X121920000Y-133350000D02*
X115570000Y-133350000D01*
X115570000Y-133350000D02*
X115570000Y-133350000D01*
X91509315Y-93345000D02*
X92075000Y-93345000D01*
X90805000Y-93345000D02*
X91509315Y-93345000D01*
X87630000Y-96520000D02*
X90805000Y-93345000D01*
X87630000Y-132080000D02*
X87630000Y-96520000D01*
X88900000Y-133350000D02*
X87630000Y-132080000D01*
X105410000Y-133350000D02*
X88900000Y-133350000D01*
X120650000Y-70485000D02*
X120650000Y-73660000D01*
X120650000Y-73660000D02*
X120650000Y-77470000D01*
X118110000Y-67945000D02*
X118110000Y-62230000D01*
X179070000Y-78740000D02*
X179070000Y-58420000D01*
X190500000Y-121285000D02*
X193040000Y-121285000D01*
X190500000Y-67945000D02*
X193040000Y-67945000D01*
X213360000Y-88265000D02*
X213360000Y-90805000D01*
X209617919Y-95885000D02*
X203200000Y-95885000D01*
X212157919Y-93345000D02*
X209617919Y-95885000D01*
X203200000Y-95885000D02*
X200914000Y-95885000D01*
X213360000Y-93345000D02*
X212157919Y-93345000D01*
X113030000Y-111760000D02*
X99060000Y-111760000D01*
X99060000Y-111760000D02*
X99060000Y-111760000D01*
X85725000Y-123190000D02*
X85725000Y-141605000D01*
X85725000Y-141605000D02*
X95250000Y-151130000D01*
X95250000Y-151130000D02*
X111734600Y-151130000D01*
X111125000Y-151130000D02*
X111734600Y-151130000D01*
X111734600Y-151130000D02*
X111125000Y-151130000D01*
X161290000Y-139700000D02*
X179070000Y-139700000D01*
X181610000Y-142240000D02*
X193675000Y-142240000D01*
X179070000Y-139700000D02*
X181610000Y-142240000D01*
X158750000Y-121285000D02*
X158750000Y-124460000D01*
X158750000Y-124460000D02*
X156210000Y-127000000D01*
X156210000Y-127000000D02*
X156210000Y-133350000D01*
X158750000Y-135890000D02*
X158750000Y-138430000D01*
X156210000Y-133350000D02*
X158750000Y-135890000D01*
X157480000Y-142240000D02*
X160020000Y-139700000D01*
X116840000Y-142240000D02*
X157480000Y-142240000D01*
X161290000Y-139700000D02*
X160020000Y-139700000D01*
X158750000Y-129540000D02*
X181610000Y-129540000D01*
X181610000Y-129540000D02*
X189230000Y-137160000D01*
X189230000Y-137160000D02*
X193675000Y-137160000D01*
X100786361Y-47716901D02*
X103413099Y-47716901D01*
X106680000Y-50983802D02*
X104775000Y-49078802D01*
X106680000Y-55880000D02*
X106680000Y-50983802D01*
X104140000Y-58420000D02*
X106680000Y-55880000D01*
X103413099Y-47716901D02*
X104775000Y-49078802D01*
X104775000Y-49078802D02*
X105226198Y-49530000D01*
X96520000Y-58420000D02*
X103505000Y-51435000D01*
X102801967Y-50256901D02*
X102870000Y-50188868D01*
X101806361Y-50256901D02*
X102801967Y-50256901D01*
X102870000Y-50188868D02*
X102893868Y-50188868D01*
X103505000Y-50800000D02*
X103505000Y-51435000D01*
X102893868Y-50188868D02*
X103505000Y-50800000D01*
X102961901Y-50256901D02*
X103505000Y-50800000D01*
X98425000Y-50256901D02*
X102961901Y-50256901D01*
X98425000Y-50256901D02*
X101806361Y-50256901D01*
X83256361Y-50256901D02*
X98425000Y-50256901D01*
X108980000Y-156450000D02*
X98800000Y-156450000D01*
X122555000Y-156845000D02*
X112395000Y-156845000D01*
X115570000Y-153670000D02*
X112395000Y-156845000D01*
X112395000Y-156845000D02*
X110250000Y-158990000D01*
G04 #@! TD*
M02*
