G04 #@! TF.GenerationSoftware,KiCad,Pcbnew,(5.0.2)-1*
G04 #@! TF.CreationDate,2022-12-18T00:38:05+03:00*
G04 #@! TF.ProjectId,aks_mainboard,616b735f-6d61-4696-9e62-6f6172642e6b,rev?*
G04 #@! TF.SameCoordinates,Original*
G04 #@! TF.FileFunction,Legend,Top*
G04 #@! TF.FilePolarity,Positive*
%FSLAX46Y46*%
G04 Gerber Fmt 4.6, Leading zero omitted, Abs format (unit mm)*
G04 Created by KiCad (PCBNEW (5.0.2)-1) date 18.12.2022 00:38:05*
%MOMM*%
%LPD*%
G01*
G04 APERTURE LIST*
%ADD10C,0.300000*%
%ADD11C,0.250000*%
%ADD12C,0.127000*%
%ADD13C,0.120000*%
%ADD14C,0.200000*%
%ADD15C,0.150000*%
G04 APERTURE END LIST*
D10*
X200390000Y-136366428D02*
X200485238Y-136175952D01*
X200485238Y-135890238D01*
X200390000Y-135604523D01*
X200199523Y-135414047D01*
X200009047Y-135318809D01*
X199628095Y-135223571D01*
X199342380Y-135223571D01*
X198961428Y-135318809D01*
X198770952Y-135414047D01*
X198580476Y-135604523D01*
X198485238Y-135890238D01*
X198485238Y-136080714D01*
X198580476Y-136366428D01*
X198675714Y-136461666D01*
X199342380Y-136461666D01*
X199342380Y-136080714D01*
X198485238Y-137318809D02*
X200485238Y-137318809D01*
X200485238Y-138080714D01*
X200390000Y-138271190D01*
X200294761Y-138366428D01*
X200104285Y-138461666D01*
X199818571Y-138461666D01*
X199628095Y-138366428D01*
X199532857Y-138271190D01*
X199437619Y-138080714D01*
X199437619Y-137318809D01*
X198580476Y-139223571D02*
X198485238Y-139509285D01*
X198485238Y-139985476D01*
X198580476Y-140175952D01*
X198675714Y-140271190D01*
X198866190Y-140366428D01*
X199056666Y-140366428D01*
X199247142Y-140271190D01*
X199342380Y-140175952D01*
X199437619Y-139985476D01*
X199532857Y-139604523D01*
X199628095Y-139414047D01*
X199723333Y-139318809D01*
X199913809Y-139223571D01*
X200104285Y-139223571D01*
X200294761Y-139318809D01*
X200390000Y-139414047D01*
X200485238Y-139604523D01*
X200485238Y-140080714D01*
X200390000Y-140366428D01*
X220710238Y-94234285D02*
X220710238Y-93281904D01*
X222710238Y-93281904D01*
X222710238Y-95281904D02*
X222710238Y-95662857D01*
X222615000Y-95853333D01*
X222424523Y-96043809D01*
X222043571Y-96139047D01*
X221376904Y-96139047D01*
X220995952Y-96043809D01*
X220805476Y-95853333D01*
X220710238Y-95662857D01*
X220710238Y-95281904D01*
X220805476Y-95091428D01*
X220995952Y-94900952D01*
X221376904Y-94805714D01*
X222043571Y-94805714D01*
X222424523Y-94900952D01*
X222615000Y-95091428D01*
X222710238Y-95281904D01*
X220710238Y-98139047D02*
X221662619Y-97472380D01*
X220710238Y-96996190D02*
X222710238Y-96996190D01*
X222710238Y-97758095D01*
X222615000Y-97948571D01*
X222519761Y-98043809D01*
X222329285Y-98139047D01*
X222043571Y-98139047D01*
X221853095Y-98043809D01*
X221757857Y-97948571D01*
X221662619Y-97758095D01*
X221662619Y-96996190D01*
X221281666Y-98900952D02*
X221281666Y-99853333D01*
X220710238Y-98710476D02*
X222710238Y-99377142D01*
X220710238Y-100043809D01*
D11*
X114633571Y-159285714D02*
X114562142Y-159357142D01*
X114347857Y-159428571D01*
X114205000Y-159428571D01*
X113990714Y-159357142D01*
X113847857Y-159214285D01*
X113776428Y-159071428D01*
X113705000Y-158785714D01*
X113705000Y-158571428D01*
X113776428Y-158285714D01*
X113847857Y-158142857D01*
X113990714Y-158000000D01*
X114205000Y-157928571D01*
X114347857Y-157928571D01*
X114562142Y-158000000D01*
X114633571Y-158071428D01*
X115205000Y-159000000D02*
X115919285Y-159000000D01*
X115062142Y-159428571D02*
X115562142Y-157928571D01*
X116062142Y-159428571D01*
X116562142Y-159428571D02*
X116562142Y-157928571D01*
X117419285Y-159428571D01*
X117419285Y-157928571D01*
X118847857Y-159428571D02*
X118133571Y-159428571D01*
X118133571Y-157928571D01*
X114455000Y-166270714D02*
X114383571Y-166342142D01*
X114169285Y-166413571D01*
X114026428Y-166413571D01*
X113812142Y-166342142D01*
X113669285Y-166199285D01*
X113597857Y-166056428D01*
X113526428Y-165770714D01*
X113526428Y-165556428D01*
X113597857Y-165270714D01*
X113669285Y-165127857D01*
X113812142Y-164985000D01*
X114026428Y-164913571D01*
X114169285Y-164913571D01*
X114383571Y-164985000D01*
X114455000Y-165056428D01*
X115026428Y-165985000D02*
X115740714Y-165985000D01*
X114883571Y-166413571D02*
X115383571Y-164913571D01*
X115883571Y-166413571D01*
X116383571Y-166413571D02*
X116383571Y-164913571D01*
X117240714Y-166413571D01*
X117240714Y-164913571D01*
X117955000Y-166413571D02*
X117955000Y-164913571D01*
X117955000Y-165627857D02*
X118812142Y-165627857D01*
X118812142Y-166413571D02*
X118812142Y-164913571D01*
X141648571Y-147720714D02*
X141648571Y-148577857D01*
X141648571Y-148149285D02*
X140148571Y-148149285D01*
X140362857Y-148292142D01*
X140505714Y-148435000D01*
X140577142Y-148577857D01*
X140148571Y-146792142D02*
X140148571Y-146649285D01*
X140220000Y-146506428D01*
X140291428Y-146435000D01*
X140434285Y-146363571D01*
X140720000Y-146292142D01*
X141077142Y-146292142D01*
X141362857Y-146363571D01*
X141505714Y-146435000D01*
X141577142Y-146506428D01*
X141648571Y-146649285D01*
X141648571Y-146792142D01*
X141577142Y-146935000D01*
X141505714Y-147006428D01*
X141362857Y-147077857D01*
X141077142Y-147149285D01*
X140720000Y-147149285D01*
X140434285Y-147077857D01*
X140291428Y-147006428D01*
X140220000Y-146935000D01*
X140148571Y-146792142D01*
X141648571Y-145649285D02*
X140148571Y-145649285D01*
X141648571Y-144792142D02*
X140791428Y-145435000D01*
X140148571Y-144792142D02*
X141005714Y-145649285D01*
X125686428Y-158270000D02*
X125686428Y-157412857D01*
X125686428Y-157841428D02*
X127186428Y-157841428D01*
X126972142Y-157698571D01*
X126829285Y-157555714D01*
X126757857Y-157412857D01*
X127043571Y-158841428D02*
X127115000Y-158912857D01*
X127186428Y-159055714D01*
X127186428Y-159412857D01*
X127115000Y-159555714D01*
X127043571Y-159627142D01*
X126900714Y-159698571D01*
X126757857Y-159698571D01*
X126543571Y-159627142D01*
X125686428Y-158770000D01*
X125686428Y-159698571D01*
X127186428Y-160627142D02*
X127186428Y-160770000D01*
X127115000Y-160912857D01*
X127043571Y-160984285D01*
X126900714Y-161055714D01*
X126615000Y-161127142D01*
X126257857Y-161127142D01*
X125972142Y-161055714D01*
X125829285Y-160984285D01*
X125757857Y-160912857D01*
X125686428Y-160770000D01*
X125686428Y-160627142D01*
X125757857Y-160484285D01*
X125829285Y-160412857D01*
X125972142Y-160341428D01*
X126257857Y-160270000D01*
X126615000Y-160270000D01*
X126900714Y-160341428D01*
X127043571Y-160412857D01*
X127115000Y-160484285D01*
X127186428Y-160627142D01*
X125686428Y-161770000D02*
X127186428Y-161770000D01*
X125686428Y-162627142D02*
X126543571Y-161984285D01*
X127186428Y-162627142D02*
X126329285Y-161770000D01*
X92753571Y-60170000D02*
X92753571Y-61027142D01*
X92753571Y-60598571D02*
X91253571Y-60598571D01*
X91467857Y-60741428D01*
X91610714Y-60884285D01*
X91682142Y-61027142D01*
X91396428Y-59598571D02*
X91325000Y-59527142D01*
X91253571Y-59384285D01*
X91253571Y-59027142D01*
X91325000Y-58884285D01*
X91396428Y-58812857D01*
X91539285Y-58741428D01*
X91682142Y-58741428D01*
X91896428Y-58812857D01*
X92753571Y-59670000D01*
X92753571Y-58741428D01*
X91253571Y-57812857D02*
X91253571Y-57670000D01*
X91325000Y-57527142D01*
X91396428Y-57455714D01*
X91539285Y-57384285D01*
X91825000Y-57312857D01*
X92182142Y-57312857D01*
X92467857Y-57384285D01*
X92610714Y-57455714D01*
X92682142Y-57527142D01*
X92753571Y-57670000D01*
X92753571Y-57812857D01*
X92682142Y-57955714D01*
X92610714Y-58027142D01*
X92467857Y-58098571D01*
X92182142Y-58170000D01*
X91825000Y-58170000D01*
X91539285Y-58098571D01*
X91396428Y-58027142D01*
X91325000Y-57955714D01*
X91253571Y-57812857D01*
X92753571Y-56670000D02*
X91253571Y-56670000D01*
X92753571Y-55812857D02*
X91896428Y-56455714D01*
X91253571Y-55812857D02*
X92110714Y-56670000D01*
X145570000Y-44493571D02*
X145570000Y-42993571D01*
X146141428Y-42993571D01*
X146284285Y-43065000D01*
X146355714Y-43136428D01*
X146427142Y-43279285D01*
X146427142Y-43493571D01*
X146355714Y-43636428D01*
X146284285Y-43707857D01*
X146141428Y-43779285D01*
X145570000Y-43779285D01*
X146998571Y-44065000D02*
X147712857Y-44065000D01*
X146855714Y-44493571D02*
X147355714Y-42993571D01*
X147855714Y-44493571D01*
X148998571Y-43493571D02*
X148998571Y-44493571D01*
X148641428Y-42922142D02*
X148284285Y-43993571D01*
X149212857Y-43993571D01*
X150650000Y-44493571D02*
X150650000Y-42993571D01*
X151221428Y-42993571D01*
X151364285Y-43065000D01*
X151435714Y-43136428D01*
X151507142Y-43279285D01*
X151507142Y-43493571D01*
X151435714Y-43636428D01*
X151364285Y-43707857D01*
X151221428Y-43779285D01*
X150650000Y-43779285D01*
X152078571Y-44065000D02*
X152792857Y-44065000D01*
X151935714Y-44493571D02*
X152435714Y-42993571D01*
X152935714Y-44493571D01*
X153364285Y-43136428D02*
X153435714Y-43065000D01*
X153578571Y-42993571D01*
X153935714Y-42993571D01*
X154078571Y-43065000D01*
X154150000Y-43136428D01*
X154221428Y-43279285D01*
X154221428Y-43422142D01*
X154150000Y-43636428D01*
X153292857Y-44493571D01*
X154221428Y-44493571D01*
X165782857Y-44493571D02*
X165782857Y-42993571D01*
X166354285Y-42993571D01*
X166497142Y-43065000D01*
X166568571Y-43136428D01*
X166640000Y-43279285D01*
X166640000Y-43493571D01*
X166568571Y-43636428D01*
X166497142Y-43707857D01*
X166354285Y-43779285D01*
X165782857Y-43779285D01*
X168140000Y-44350714D02*
X168068571Y-44422142D01*
X167854285Y-44493571D01*
X167711428Y-44493571D01*
X167497142Y-44422142D01*
X167354285Y-44279285D01*
X167282857Y-44136428D01*
X167211428Y-43850714D01*
X167211428Y-43636428D01*
X167282857Y-43350714D01*
X167354285Y-43207857D01*
X167497142Y-43065000D01*
X167711428Y-42993571D01*
X167854285Y-42993571D01*
X168068571Y-43065000D01*
X168140000Y-43136428D01*
X169068571Y-42993571D02*
X169211428Y-42993571D01*
X169354285Y-43065000D01*
X169425714Y-43136428D01*
X169497142Y-43279285D01*
X169568571Y-43565000D01*
X169568571Y-43922142D01*
X169497142Y-44207857D01*
X169425714Y-44350714D01*
X169354285Y-44422142D01*
X169211428Y-44493571D01*
X169068571Y-44493571D01*
X168925714Y-44422142D01*
X168854285Y-44350714D01*
X168782857Y-44207857D01*
X168711428Y-43922142D01*
X168711428Y-43565000D01*
X168782857Y-43279285D01*
X168854285Y-43136428D01*
X168925714Y-43065000D01*
X169068571Y-42993571D01*
X155730000Y-44493571D02*
X155730000Y-42993571D01*
X156301428Y-42993571D01*
X156444285Y-43065000D01*
X156515714Y-43136428D01*
X156587142Y-43279285D01*
X156587142Y-43493571D01*
X156515714Y-43636428D01*
X156444285Y-43707857D01*
X156301428Y-43779285D01*
X155730000Y-43779285D01*
X157158571Y-44065000D02*
X157872857Y-44065000D01*
X157015714Y-44493571D02*
X157515714Y-42993571D01*
X158015714Y-44493571D01*
X158801428Y-42993571D02*
X158944285Y-42993571D01*
X159087142Y-43065000D01*
X159158571Y-43136428D01*
X159230000Y-43279285D01*
X159301428Y-43565000D01*
X159301428Y-43922142D01*
X159230000Y-44207857D01*
X159158571Y-44350714D01*
X159087142Y-44422142D01*
X158944285Y-44493571D01*
X158801428Y-44493571D01*
X158658571Y-44422142D01*
X158587142Y-44350714D01*
X158515714Y-44207857D01*
X158444285Y-43922142D01*
X158444285Y-43565000D01*
X158515714Y-43279285D01*
X158587142Y-43136428D01*
X158658571Y-43065000D01*
X158801428Y-42993571D01*
X140490000Y-44493571D02*
X140490000Y-42993571D01*
X141061428Y-42993571D01*
X141204285Y-43065000D01*
X141275714Y-43136428D01*
X141347142Y-43279285D01*
X141347142Y-43493571D01*
X141275714Y-43636428D01*
X141204285Y-43707857D01*
X141061428Y-43779285D01*
X140490000Y-43779285D01*
X141918571Y-44065000D02*
X142632857Y-44065000D01*
X141775714Y-44493571D02*
X142275714Y-42993571D01*
X142775714Y-44493571D01*
X143918571Y-42993571D02*
X143632857Y-42993571D01*
X143490000Y-43065000D01*
X143418571Y-43136428D01*
X143275714Y-43350714D01*
X143204285Y-43636428D01*
X143204285Y-44207857D01*
X143275714Y-44350714D01*
X143347142Y-44422142D01*
X143490000Y-44493571D01*
X143775714Y-44493571D01*
X143918571Y-44422142D01*
X143990000Y-44350714D01*
X144061428Y-44207857D01*
X144061428Y-43850714D01*
X143990000Y-43707857D01*
X143918571Y-43636428D01*
X143775714Y-43565000D01*
X143490000Y-43565000D01*
X143347142Y-43636428D01*
X143275714Y-43707857D01*
X143204285Y-43850714D01*
X160702857Y-44493571D02*
X160702857Y-42993571D01*
X161274285Y-42993571D01*
X161417142Y-43065000D01*
X161488571Y-43136428D01*
X161560000Y-43279285D01*
X161560000Y-43493571D01*
X161488571Y-43636428D01*
X161417142Y-43707857D01*
X161274285Y-43779285D01*
X160702857Y-43779285D01*
X163060000Y-44350714D02*
X162988571Y-44422142D01*
X162774285Y-44493571D01*
X162631428Y-44493571D01*
X162417142Y-44422142D01*
X162274285Y-44279285D01*
X162202857Y-44136428D01*
X162131428Y-43850714D01*
X162131428Y-43636428D01*
X162202857Y-43350714D01*
X162274285Y-43207857D01*
X162417142Y-43065000D01*
X162631428Y-42993571D01*
X162774285Y-42993571D01*
X162988571Y-43065000D01*
X163060000Y-43136428D01*
X163631428Y-43136428D02*
X163702857Y-43065000D01*
X163845714Y-42993571D01*
X164202857Y-42993571D01*
X164345714Y-43065000D01*
X164417142Y-43136428D01*
X164488571Y-43279285D01*
X164488571Y-43422142D01*
X164417142Y-43636428D01*
X163560000Y-44493571D01*
X164488571Y-44493571D01*
X115090000Y-44493571D02*
X115090000Y-42993571D01*
X115661428Y-42993571D01*
X115804285Y-43065000D01*
X115875714Y-43136428D01*
X115947142Y-43279285D01*
X115947142Y-43493571D01*
X115875714Y-43636428D01*
X115804285Y-43707857D01*
X115661428Y-43779285D01*
X115090000Y-43779285D01*
X116518571Y-44065000D02*
X117232857Y-44065000D01*
X116375714Y-44493571D02*
X116875714Y-42993571D01*
X117375714Y-44493571D01*
X118590000Y-42993571D02*
X117875714Y-42993571D01*
X117804285Y-43707857D01*
X117875714Y-43636428D01*
X118018571Y-43565000D01*
X118375714Y-43565000D01*
X118518571Y-43636428D01*
X118590000Y-43707857D01*
X118661428Y-43850714D01*
X118661428Y-44207857D01*
X118590000Y-44350714D01*
X118518571Y-44422142D01*
X118375714Y-44493571D01*
X118018571Y-44493571D01*
X117875714Y-44422142D01*
X117804285Y-44350714D01*
X110010000Y-44493571D02*
X110010000Y-42993571D01*
X110581428Y-42993571D01*
X110724285Y-43065000D01*
X110795714Y-43136428D01*
X110867142Y-43279285D01*
X110867142Y-43493571D01*
X110795714Y-43636428D01*
X110724285Y-43707857D01*
X110581428Y-43779285D01*
X110010000Y-43779285D01*
X111438571Y-44065000D02*
X112152857Y-44065000D01*
X111295714Y-44493571D02*
X111795714Y-42993571D01*
X112295714Y-44493571D01*
X112652857Y-42993571D02*
X113652857Y-42993571D01*
X113010000Y-44493571D01*
X125250000Y-44493571D02*
X125250000Y-42993571D01*
X125821428Y-42993571D01*
X125964285Y-43065000D01*
X126035714Y-43136428D01*
X126107142Y-43279285D01*
X126107142Y-43493571D01*
X126035714Y-43636428D01*
X125964285Y-43707857D01*
X125821428Y-43779285D01*
X125250000Y-43779285D01*
X126678571Y-44065000D02*
X127392857Y-44065000D01*
X126535714Y-44493571D02*
X127035714Y-42993571D01*
X127535714Y-44493571D01*
X128821428Y-44493571D02*
X127964285Y-44493571D01*
X128392857Y-44493571D02*
X128392857Y-42993571D01*
X128250000Y-43207857D01*
X128107142Y-43350714D01*
X127964285Y-43422142D01*
X120170000Y-44493571D02*
X120170000Y-42993571D01*
X120741428Y-42993571D01*
X120884285Y-43065000D01*
X120955714Y-43136428D01*
X121027142Y-43279285D01*
X121027142Y-43493571D01*
X120955714Y-43636428D01*
X120884285Y-43707857D01*
X120741428Y-43779285D01*
X120170000Y-43779285D01*
X121598571Y-44065000D02*
X122312857Y-44065000D01*
X121455714Y-44493571D02*
X121955714Y-42993571D01*
X122455714Y-44493571D01*
X122812857Y-42993571D02*
X123741428Y-42993571D01*
X123241428Y-43565000D01*
X123455714Y-43565000D01*
X123598571Y-43636428D01*
X123670000Y-43707857D01*
X123741428Y-43850714D01*
X123741428Y-44207857D01*
X123670000Y-44350714D01*
X123598571Y-44422142D01*
X123455714Y-44493571D01*
X123027142Y-44493571D01*
X122884285Y-44422142D01*
X122812857Y-44350714D01*
X130222857Y-44493571D02*
X130222857Y-42993571D01*
X130794285Y-42993571D01*
X130937142Y-43065000D01*
X131008571Y-43136428D01*
X131080000Y-43279285D01*
X131080000Y-43493571D01*
X131008571Y-43636428D01*
X130937142Y-43707857D01*
X130794285Y-43779285D01*
X130222857Y-43779285D01*
X132580000Y-44350714D02*
X132508571Y-44422142D01*
X132294285Y-44493571D01*
X132151428Y-44493571D01*
X131937142Y-44422142D01*
X131794285Y-44279285D01*
X131722857Y-44136428D01*
X131651428Y-43850714D01*
X131651428Y-43636428D01*
X131722857Y-43350714D01*
X131794285Y-43207857D01*
X131937142Y-43065000D01*
X132151428Y-42993571D01*
X132294285Y-42993571D01*
X132508571Y-43065000D01*
X132580000Y-43136428D01*
X133080000Y-42993571D02*
X134008571Y-42993571D01*
X133508571Y-43565000D01*
X133722857Y-43565000D01*
X133865714Y-43636428D01*
X133937142Y-43707857D01*
X134008571Y-43850714D01*
X134008571Y-44207857D01*
X133937142Y-44350714D01*
X133865714Y-44422142D01*
X133722857Y-44493571D01*
X133294285Y-44493571D01*
X133151428Y-44422142D01*
X133080000Y-44350714D01*
X135302857Y-44493571D02*
X135302857Y-42993571D01*
X135874285Y-42993571D01*
X136017142Y-43065000D01*
X136088571Y-43136428D01*
X136160000Y-43279285D01*
X136160000Y-43493571D01*
X136088571Y-43636428D01*
X136017142Y-43707857D01*
X135874285Y-43779285D01*
X135302857Y-43779285D01*
X137660000Y-44350714D02*
X137588571Y-44422142D01*
X137374285Y-44493571D01*
X137231428Y-44493571D01*
X137017142Y-44422142D01*
X136874285Y-44279285D01*
X136802857Y-44136428D01*
X136731428Y-43850714D01*
X136731428Y-43636428D01*
X136802857Y-43350714D01*
X136874285Y-43207857D01*
X137017142Y-43065000D01*
X137231428Y-42993571D01*
X137374285Y-42993571D01*
X137588571Y-43065000D01*
X137660000Y-43136428D01*
X139088571Y-44493571D02*
X138231428Y-44493571D01*
X138660000Y-44493571D02*
X138660000Y-42993571D01*
X138517142Y-43207857D01*
X138374285Y-43350714D01*
X138231428Y-43422142D01*
D10*
X180705238Y-99663809D02*
X182705238Y-99663809D01*
X182705238Y-100140000D01*
X182610000Y-100425714D01*
X182419523Y-100616190D01*
X182229047Y-100711428D01*
X181848095Y-100806666D01*
X181562380Y-100806666D01*
X181181428Y-100711428D01*
X180990952Y-100616190D01*
X180800476Y-100425714D01*
X180705238Y-100140000D01*
X180705238Y-99663809D01*
X181752857Y-101663809D02*
X181752857Y-102330476D01*
X180705238Y-102616190D02*
X180705238Y-101663809D01*
X182705238Y-101663809D01*
X182705238Y-102616190D01*
X181752857Y-104140000D02*
X181657619Y-104425714D01*
X181562380Y-104520952D01*
X181371904Y-104616190D01*
X181086190Y-104616190D01*
X180895714Y-104520952D01*
X180800476Y-104425714D01*
X180705238Y-104235238D01*
X180705238Y-103473333D01*
X182705238Y-103473333D01*
X182705238Y-104140000D01*
X182610000Y-104330476D01*
X182514761Y-104425714D01*
X182324285Y-104520952D01*
X182133809Y-104520952D01*
X181943333Y-104425714D01*
X181848095Y-104330476D01*
X181752857Y-104140000D01*
X181752857Y-103473333D01*
X182705238Y-105473333D02*
X181086190Y-105473333D01*
X180895714Y-105568571D01*
X180800476Y-105663809D01*
X180705238Y-105854285D01*
X180705238Y-106235238D01*
X180800476Y-106425714D01*
X180895714Y-106520952D01*
X181086190Y-106616190D01*
X182705238Y-106616190D01*
X182610000Y-108616190D02*
X182705238Y-108425714D01*
X182705238Y-108140000D01*
X182610000Y-107854285D01*
X182419523Y-107663809D01*
X182229047Y-107568571D01*
X181848095Y-107473333D01*
X181562380Y-107473333D01*
X181181428Y-107568571D01*
X180990952Y-107663809D01*
X180800476Y-107854285D01*
X180705238Y-108140000D01*
X180705238Y-108330476D01*
X180800476Y-108616190D01*
X180895714Y-108711428D01*
X181562380Y-108711428D01*
X181562380Y-108330476D01*
D11*
X83688909Y-144625714D02*
X83617480Y-144482857D01*
X83617480Y-144197142D01*
X83688909Y-144054285D01*
X83760337Y-143982857D01*
X83903194Y-143911428D01*
X84331766Y-143911428D01*
X84474623Y-143982857D01*
X84546052Y-144054285D01*
X84617480Y-144197142D01*
X84617480Y-144482857D01*
X84546052Y-144625714D01*
X83617480Y-145911428D02*
X84403194Y-145911428D01*
X84546052Y-145840000D01*
X84617480Y-145697142D01*
X84617480Y-145411428D01*
X84546052Y-145268571D01*
X83688909Y-145911428D02*
X83617480Y-145768571D01*
X83617480Y-145411428D01*
X83688909Y-145268571D01*
X83831766Y-145197142D01*
X83974623Y-145197142D01*
X84117480Y-145268571D01*
X84188909Y-145411428D01*
X84188909Y-145768571D01*
X84260337Y-145911428D01*
X84617480Y-146625714D02*
X83617480Y-146625714D01*
X84474623Y-146625714D02*
X84546052Y-146697142D01*
X84617480Y-146840000D01*
X84617480Y-147054285D01*
X84546052Y-147197142D01*
X84403194Y-147268571D01*
X83617480Y-147268571D01*
X83617480Y-149125714D02*
X85117480Y-149125714D01*
X83617480Y-149768571D02*
X84403194Y-149768571D01*
X84546052Y-149697142D01*
X84617480Y-149554285D01*
X84617480Y-149340000D01*
X84546052Y-149197142D01*
X84474623Y-149125714D01*
X83617480Y-150482857D02*
X84617480Y-150482857D01*
X85117480Y-150482857D02*
X85046052Y-150411428D01*
X84974623Y-150482857D01*
X85046052Y-150554285D01*
X85117480Y-150482857D01*
X84974623Y-150482857D01*
X84617480Y-151840000D02*
X83403194Y-151840000D01*
X83260337Y-151768571D01*
X83188909Y-151697142D01*
X83117480Y-151554285D01*
X83117480Y-151340000D01*
X83188909Y-151197142D01*
X83688909Y-151840000D02*
X83617480Y-151697142D01*
X83617480Y-151411428D01*
X83688909Y-151268571D01*
X83760337Y-151197142D01*
X83903194Y-151125714D01*
X84331766Y-151125714D01*
X84474623Y-151197142D01*
X84546052Y-151268571D01*
X84617480Y-151411428D01*
X84617480Y-151697142D01*
X84546052Y-151840000D01*
X83617480Y-152554285D02*
X85117480Y-152554285D01*
X83617480Y-153197142D02*
X84403194Y-153197142D01*
X84546052Y-153125714D01*
X84617480Y-152982857D01*
X84617480Y-152768571D01*
X84546052Y-152625714D01*
X84474623Y-152554285D01*
X74163909Y-154686428D02*
X74092480Y-154543571D01*
X74092480Y-154257857D01*
X74163909Y-154115000D01*
X74235337Y-154043571D01*
X74378194Y-153972142D01*
X74806766Y-153972142D01*
X74949623Y-154043571D01*
X75021052Y-154115000D01*
X75092480Y-154257857D01*
X75092480Y-154543571D01*
X75021052Y-154686428D01*
X74092480Y-155972142D02*
X74878194Y-155972142D01*
X75021052Y-155900714D01*
X75092480Y-155757857D01*
X75092480Y-155472142D01*
X75021052Y-155329285D01*
X74163909Y-155972142D02*
X74092480Y-155829285D01*
X74092480Y-155472142D01*
X74163909Y-155329285D01*
X74306766Y-155257857D01*
X74449623Y-155257857D01*
X74592480Y-155329285D01*
X74663909Y-155472142D01*
X74663909Y-155829285D01*
X74735337Y-155972142D01*
X75092480Y-156686428D02*
X74092480Y-156686428D01*
X74949623Y-156686428D02*
X75021052Y-156757857D01*
X75092480Y-156900714D01*
X75092480Y-157115000D01*
X75021052Y-157257857D01*
X74878194Y-157329285D01*
X74092480Y-157329285D01*
X74092480Y-159400714D02*
X74163909Y-159257857D01*
X74306766Y-159186428D01*
X75592480Y-159186428D01*
X74092480Y-160186428D02*
X74163909Y-160043571D01*
X74235337Y-159972142D01*
X74378194Y-159900714D01*
X74806766Y-159900714D01*
X74949623Y-159972142D01*
X75021052Y-160043571D01*
X75092480Y-160186428D01*
X75092480Y-160400714D01*
X75021052Y-160543571D01*
X74949623Y-160615000D01*
X74806766Y-160686428D01*
X74378194Y-160686428D01*
X74235337Y-160615000D01*
X74163909Y-160543571D01*
X74092480Y-160400714D01*
X74092480Y-160186428D01*
X75092480Y-161186428D02*
X74092480Y-161472142D01*
X74806766Y-161757857D01*
X74092480Y-162043571D01*
X75092480Y-162329285D01*
D12*
X197128190Y-136772952D02*
X197128190Y-137063238D01*
X196620190Y-136918095D02*
X197128190Y-136918095D01*
X197128190Y-137184190D02*
X196620190Y-137522857D01*
X197128190Y-137522857D02*
X196620190Y-137184190D01*
X196620190Y-139615333D02*
X196862095Y-139446000D01*
X196620190Y-139325047D02*
X197128190Y-139325047D01*
X197128190Y-139518571D01*
X197104000Y-139566952D01*
X197079809Y-139591142D01*
X197031428Y-139615333D01*
X196958857Y-139615333D01*
X196910476Y-139591142D01*
X196886285Y-139566952D01*
X196862095Y-139518571D01*
X196862095Y-139325047D01*
X197128190Y-139784666D02*
X196620190Y-140123333D01*
X197128190Y-140123333D02*
X196620190Y-139784666D01*
X197128190Y-142143238D02*
X197128190Y-141901333D01*
X196886285Y-141877142D01*
X196910476Y-141901333D01*
X196934666Y-141949714D01*
X196934666Y-142070666D01*
X196910476Y-142119047D01*
X196886285Y-142143238D01*
X196837904Y-142167428D01*
X196716952Y-142167428D01*
X196668571Y-142143238D01*
X196644380Y-142119047D01*
X196620190Y-142070666D01*
X196620190Y-141949714D01*
X196644380Y-141901333D01*
X196668571Y-141877142D01*
X197128190Y-142312571D02*
X196620190Y-142481904D01*
X197128190Y-142651238D01*
X197104000Y-134232952D02*
X197128190Y-134184571D01*
X197128190Y-134112000D01*
X197104000Y-134039428D01*
X197055619Y-133991047D01*
X197007238Y-133966857D01*
X196910476Y-133942666D01*
X196837904Y-133942666D01*
X196741142Y-133966857D01*
X196692761Y-133991047D01*
X196644380Y-134039428D01*
X196620190Y-134112000D01*
X196620190Y-134160380D01*
X196644380Y-134232952D01*
X196668571Y-134257142D01*
X196837904Y-134257142D01*
X196837904Y-134160380D01*
X196620190Y-134474857D02*
X197128190Y-134474857D01*
X196620190Y-134765142D01*
X197128190Y-134765142D01*
X196620190Y-135007047D02*
X197128190Y-135007047D01*
X197128190Y-135128000D01*
X197104000Y-135200571D01*
X197055619Y-135248952D01*
X197007238Y-135273142D01*
X196910476Y-135297333D01*
X196837904Y-135297333D01*
X196741142Y-135273142D01*
X196692761Y-135248952D01*
X196644380Y-135200571D01*
X196620190Y-135128000D01*
X196620190Y-135007047D01*
X218845190Y-87853761D02*
X219353190Y-87853761D01*
X218990333Y-88023095D01*
X219353190Y-88192428D01*
X218845190Y-88192428D01*
X219353190Y-88531095D02*
X219353190Y-88579476D01*
X219329000Y-88627857D01*
X219304809Y-88652047D01*
X219256428Y-88676238D01*
X219159666Y-88700428D01*
X219038714Y-88700428D01*
X218941952Y-88676238D01*
X218893571Y-88652047D01*
X218869380Y-88627857D01*
X218845190Y-88579476D01*
X218845190Y-88531095D01*
X218869380Y-88482714D01*
X218893571Y-88458523D01*
X218941952Y-88434333D01*
X219038714Y-88410142D01*
X219159666Y-88410142D01*
X219256428Y-88434333D01*
X219304809Y-88458523D01*
X219329000Y-88482714D01*
X219353190Y-88531095D01*
X218845190Y-90393761D02*
X219353190Y-90393761D01*
X218990333Y-90563095D01*
X219353190Y-90732428D01*
X218845190Y-90732428D01*
X218845190Y-91240428D02*
X218845190Y-90950142D01*
X218845190Y-91095285D02*
X219353190Y-91095285D01*
X219280619Y-91046904D01*
X219232238Y-90998523D01*
X219208047Y-90950142D01*
X218845190Y-93260333D02*
X219087095Y-93091000D01*
X218845190Y-92970047D02*
X219353190Y-92970047D01*
X219353190Y-93163571D01*
X219329000Y-93211952D01*
X219304809Y-93236142D01*
X219256428Y-93260333D01*
X219183857Y-93260333D01*
X219135476Y-93236142D01*
X219111285Y-93211952D01*
X219087095Y-93163571D01*
X219087095Y-92970047D01*
X219353190Y-93429666D02*
X218845190Y-93768333D01*
X219353190Y-93768333D02*
X218845190Y-93429666D01*
X219353190Y-95497952D02*
X219353190Y-95788238D01*
X218845190Y-95643095D02*
X219353190Y-95643095D01*
X219353190Y-95909190D02*
X218845190Y-96247857D01*
X219353190Y-96247857D02*
X218845190Y-95909190D01*
X219353190Y-100868238D02*
X219353190Y-100626333D01*
X219111285Y-100602142D01*
X219135476Y-100626333D01*
X219159666Y-100674714D01*
X219159666Y-100795666D01*
X219135476Y-100844047D01*
X219111285Y-100868238D01*
X219062904Y-100892428D01*
X218941952Y-100892428D01*
X218893571Y-100868238D01*
X218869380Y-100844047D01*
X218845190Y-100795666D01*
X218845190Y-100674714D01*
X218869380Y-100626333D01*
X218893571Y-100602142D01*
X219353190Y-101037571D02*
X218845190Y-101206904D01*
X219353190Y-101376238D01*
X218990333Y-97796047D02*
X218990333Y-98037952D01*
X218845190Y-97747666D02*
X219353190Y-97917000D01*
X218845190Y-98086333D01*
X219353190Y-98255666D02*
X218941952Y-98255666D01*
X218893571Y-98279857D01*
X218869380Y-98304047D01*
X218845190Y-98352428D01*
X218845190Y-98449190D01*
X218869380Y-98497571D01*
X218893571Y-98521761D01*
X218941952Y-98545952D01*
X219353190Y-98545952D01*
X219353190Y-98739476D02*
X218845190Y-99078142D01*
X219353190Y-99078142D02*
X218845190Y-98739476D01*
D11*
X93182519Y-141500106D02*
X93182519Y-141119153D01*
X92682519Y-141357248D02*
X93968233Y-141357248D01*
X94111090Y-141309629D01*
X94182519Y-141214391D01*
X94182519Y-141119153D01*
X94182519Y-140881058D02*
X93182519Y-140357248D01*
X93182519Y-140881058D02*
X94182519Y-140357248D01*
X93182519Y-146675344D02*
X94396805Y-146675344D01*
X94539662Y-146722963D01*
X94611090Y-146770582D01*
X94682519Y-146865820D01*
X94682519Y-147008677D01*
X94611090Y-147103915D01*
X94111090Y-146675344D02*
X94182519Y-146770582D01*
X94182519Y-146961058D01*
X94111090Y-147056296D01*
X94039662Y-147103915D01*
X93896805Y-147151534D01*
X93468233Y-147151534D01*
X93325376Y-147103915D01*
X93253948Y-147056296D01*
X93182519Y-146961058D01*
X93182519Y-146770582D01*
X93253948Y-146675344D01*
X93182519Y-146199153D02*
X94182519Y-146199153D01*
X93325376Y-146199153D02*
X93253948Y-146151534D01*
X93182519Y-146056296D01*
X93182519Y-145913439D01*
X93253948Y-145818201D01*
X93396805Y-145770582D01*
X94182519Y-145770582D01*
X94182519Y-144865820D02*
X92682519Y-144865820D01*
X94111090Y-144865820D02*
X94182519Y-144961058D01*
X94182519Y-145151534D01*
X94111090Y-145246772D01*
X94039662Y-145294391D01*
X93896805Y-145342010D01*
X93468233Y-145342010D01*
X93325376Y-145294391D01*
X93253948Y-145246772D01*
X93182519Y-145151534D01*
X93182519Y-144961058D01*
X93253948Y-144865820D01*
X93158571Y-138620476D02*
X93158571Y-139096666D01*
X93872857Y-139144285D01*
X93801428Y-139096666D01*
X93730000Y-139001428D01*
X93730000Y-138763333D01*
X93801428Y-138668095D01*
X93872857Y-138620476D01*
X94015714Y-138572857D01*
X94372857Y-138572857D01*
X94515714Y-138620476D01*
X94587142Y-138668095D01*
X94658571Y-138763333D01*
X94658571Y-139001428D01*
X94587142Y-139096666D01*
X94515714Y-139144285D01*
X93158571Y-138287142D02*
X94658571Y-137953809D01*
X93158571Y-137620476D01*
X94182519Y-143921058D02*
X93182519Y-143921058D01*
X93468233Y-143921058D02*
X93325376Y-143873439D01*
X93253948Y-143825820D01*
X93182519Y-143730582D01*
X93182519Y-143635344D01*
X94182519Y-143397248D02*
X93182519Y-142873439D01*
X93182519Y-143397248D02*
X94182519Y-142873439D01*
X90848571Y-146496296D02*
X89348571Y-146496296D01*
X90848571Y-145639153D01*
X89348571Y-145639153D01*
X90062857Y-144924868D02*
X90062857Y-144424868D01*
X90848571Y-144210582D02*
X90848571Y-144924868D01*
X89348571Y-144924868D01*
X89348571Y-144210582D01*
X89348571Y-143710582D02*
X90848571Y-142710582D01*
X89348571Y-142710582D02*
X90848571Y-143710582D01*
X89348571Y-142353439D02*
X89348571Y-141496296D01*
X90848571Y-141924868D02*
X89348571Y-141924868D01*
X90848571Y-140996296D02*
X89348571Y-140996296D01*
X89348571Y-139996296D02*
X89348571Y-139710582D01*
X89420000Y-139567725D01*
X89562857Y-139424868D01*
X89848571Y-139353439D01*
X90348571Y-139353439D01*
X90634285Y-139424868D01*
X90777142Y-139567725D01*
X90848571Y-139710582D01*
X90848571Y-139996296D01*
X90777142Y-140139153D01*
X90634285Y-140282010D01*
X90348571Y-140353439D01*
X89848571Y-140353439D01*
X89562857Y-140282010D01*
X89420000Y-140139153D01*
X89348571Y-139996296D01*
X90848571Y-138710582D02*
X89348571Y-138710582D01*
X90848571Y-137853439D01*
X89348571Y-137853439D01*
D10*
X97909285Y-83863571D02*
X97909285Y-82363571D01*
X98266428Y-82363571D01*
X98480714Y-82435000D01*
X98623571Y-82577857D01*
X98695000Y-82720714D01*
X98766428Y-83006428D01*
X98766428Y-83220714D01*
X98695000Y-83506428D01*
X98623571Y-83649285D01*
X98480714Y-83792142D01*
X98266428Y-83863571D01*
X97909285Y-83863571D01*
X99337857Y-83435000D02*
X100052142Y-83435000D01*
X99195000Y-83863571D02*
X99695000Y-82363571D01*
X100195000Y-83863571D01*
X101552142Y-83720714D02*
X101480714Y-83792142D01*
X101266428Y-83863571D01*
X101123571Y-83863571D01*
X100909285Y-83792142D01*
X100766428Y-83649285D01*
X100695000Y-83506428D01*
X100623571Y-83220714D01*
X100623571Y-83006428D01*
X100695000Y-82720714D01*
X100766428Y-82577857D01*
X100909285Y-82435000D01*
X101123571Y-82363571D01*
X101266428Y-82363571D01*
X101480714Y-82435000D01*
X101552142Y-82506428D01*
D12*
X219329000Y-103117952D02*
X219353190Y-103069571D01*
X219353190Y-102997000D01*
X219329000Y-102924428D01*
X219280619Y-102876047D01*
X219232238Y-102851857D01*
X219135476Y-102827666D01*
X219062904Y-102827666D01*
X218966142Y-102851857D01*
X218917761Y-102876047D01*
X218869380Y-102924428D01*
X218845190Y-102997000D01*
X218845190Y-103045380D01*
X218869380Y-103117952D01*
X218893571Y-103142142D01*
X219062904Y-103142142D01*
X219062904Y-103045380D01*
X218845190Y-103359857D02*
X219353190Y-103359857D01*
X218845190Y-103650142D01*
X219353190Y-103650142D01*
X218845190Y-103892047D02*
X219353190Y-103892047D01*
X219353190Y-104013000D01*
X219329000Y-104085571D01*
X219280619Y-104133952D01*
X219232238Y-104158142D01*
X219135476Y-104182333D01*
X219062904Y-104182333D01*
X218966142Y-104158142D01*
X218917761Y-104133952D01*
X218869380Y-104085571D01*
X218845190Y-104013000D01*
X218845190Y-103892047D01*
D10*
X165620000Y-133222857D02*
X165548571Y-133365714D01*
X165548571Y-133580000D01*
X165620000Y-133794285D01*
X165762857Y-133937142D01*
X165905714Y-134008571D01*
X166191428Y-134080000D01*
X166405714Y-134080000D01*
X166691428Y-134008571D01*
X166834285Y-133937142D01*
X166977142Y-133794285D01*
X167048571Y-133580000D01*
X167048571Y-133437142D01*
X166977142Y-133222857D01*
X166905714Y-133151428D01*
X166405714Y-133151428D01*
X166405714Y-133437142D01*
X167048571Y-132508571D02*
X165548571Y-132508571D01*
X167048571Y-131651428D01*
X165548571Y-131651428D01*
X167048571Y-130937142D02*
X165548571Y-130937142D01*
X165548571Y-130580000D01*
X165620000Y-130365714D01*
X165762857Y-130222857D01*
X165905714Y-130151428D01*
X166191428Y-130080000D01*
X166405714Y-130080000D01*
X166691428Y-130151428D01*
X166834285Y-130222857D01*
X166977142Y-130365714D01*
X167048571Y-130580000D01*
X167048571Y-130937142D01*
X165548571Y-137445714D02*
X165548571Y-138160000D01*
X166262857Y-138231428D01*
X166191428Y-138160000D01*
X166120000Y-138017142D01*
X166120000Y-137660000D01*
X166191428Y-137517142D01*
X166262857Y-137445714D01*
X166405714Y-137374285D01*
X166762857Y-137374285D01*
X166905714Y-137445714D01*
X166977142Y-137517142D01*
X167048571Y-137660000D01*
X167048571Y-138017142D01*
X166977142Y-138160000D01*
X166905714Y-138231428D01*
X165548571Y-136945714D02*
X167048571Y-136445714D01*
X165548571Y-135945714D01*
D13*
G04 #@! TO.C,*
X124055833Y-163830000D02*
G75*
G03X124055833Y-163830000I-1500833J0D01*
G01*
X124055833Y-156845000D02*
G75*
G03X124055833Y-156845000I-1500833J0D01*
G01*
X105640833Y-58420000D02*
G75*
G03X105640833Y-58420000I-1500833J0D01*
G01*
X98020833Y-58420000D02*
G75*
G03X98020833Y-58420000I-1500833J0D01*
G01*
X204980233Y-82524600D02*
G75*
G03X204980233Y-82524600I-1500833J0D01*
G01*
X208510833Y-82550000D02*
G75*
G03X208510833Y-82550000I-1500833J0D01*
G01*
X200890833Y-88900000D02*
G75*
G03X200890833Y-88900000I-1500833J0D01*
G01*
X208510833Y-88900000D02*
G75*
G03X208510833Y-88900000I-1500833J0D01*
G01*
D12*
X76720000Y-154290000D02*
X90920000Y-154290000D01*
X90920000Y-167140000D02*
X76720000Y-167140000D01*
X76720000Y-159970000D02*
X76720000Y-154290000D01*
X76720000Y-167140000D02*
X76720000Y-162610000D01*
X90920000Y-159970000D02*
X90920000Y-154290000D01*
X90920000Y-167140000D02*
X90920000Y-162610000D01*
D14*
X91595000Y-158990000D02*
G75*
G03X91595000Y-158990000I-100000J0D01*
G01*
X108105000Y-158990000D02*
G75*
G03X108105000Y-158990000I-100000J0D01*
G01*
D12*
X107430000Y-167140000D02*
X107430000Y-162610000D01*
X107430000Y-159970000D02*
X107430000Y-154290000D01*
X93230000Y-167140000D02*
X93230000Y-162610000D01*
X93230000Y-159970000D02*
X93230000Y-154290000D01*
X107430000Y-167140000D02*
X93230000Y-167140000D01*
X93230000Y-154290000D02*
X107430000Y-154290000D01*
D15*
X119380000Y-45720000D02*
X129540000Y-45720000D01*
X119380000Y-50800000D02*
X119380000Y-45720000D01*
X129540000Y-50800000D02*
X119380000Y-50800000D01*
X129540000Y-45720000D02*
X129540000Y-50800000D01*
D13*
X97313948Y-137034868D02*
X98643948Y-137034868D01*
X98643948Y-137034868D02*
X98643948Y-138364868D01*
X98643948Y-139634868D02*
X98643948Y-147314868D01*
X95983948Y-147314868D02*
X98643948Y-147314868D01*
X95983948Y-139634868D02*
X95983948Y-147314868D01*
X95983948Y-139634868D02*
X98643948Y-139634868D01*
D15*
X160020000Y-45720000D02*
X170180000Y-45720000D01*
X160020000Y-50800000D02*
X160020000Y-45720000D01*
X170180000Y-50800000D02*
X160020000Y-50800000D01*
X170180000Y-45720000D02*
X170180000Y-50800000D01*
X119380000Y-45720000D02*
X119380000Y-50800000D01*
X119380000Y-50800000D02*
X109220000Y-50800000D01*
X109220000Y-50800000D02*
X109220000Y-45720000D01*
X109220000Y-45720000D02*
X119380000Y-45720000D01*
X139700000Y-45720000D02*
X139700000Y-50800000D01*
X139700000Y-50800000D02*
X129540000Y-50800000D01*
X129540000Y-50800000D02*
X129540000Y-45720000D01*
X129540000Y-45720000D02*
X139700000Y-45720000D01*
X149860000Y-45720000D02*
X149860000Y-50800000D01*
X149860000Y-50800000D02*
X139700000Y-50800000D01*
X139700000Y-50800000D02*
X139700000Y-45720000D01*
X139700000Y-45720000D02*
X149860000Y-45720000D01*
D12*
X90866361Y-52416901D02*
X76666361Y-52416901D01*
X76666361Y-39566901D02*
X90866361Y-39566901D01*
X90866361Y-46736901D02*
X90866361Y-52416901D01*
X90866361Y-39566901D02*
X90866361Y-44096901D01*
X76666361Y-46736901D02*
X76666361Y-52416901D01*
X76666361Y-39566901D02*
X76666361Y-44096901D01*
D14*
X76191361Y-47716901D02*
G75*
G03X76191361Y-47716901I-100000J0D01*
G01*
D12*
X107376361Y-52416901D02*
X93176361Y-52416901D01*
X93176361Y-39566901D02*
X107376361Y-39566901D01*
X107376361Y-46736901D02*
X107376361Y-52416901D01*
X107376361Y-39566901D02*
X107376361Y-44096901D01*
X93176361Y-46736901D02*
X93176361Y-52416901D01*
X93176361Y-39566901D02*
X93176361Y-44096901D01*
D14*
X92701361Y-47716901D02*
G75*
G03X92701361Y-47716901I-100000J0D01*
G01*
D12*
X81930000Y-54970000D02*
X81930000Y-69170000D01*
X69080000Y-69170000D02*
X69080000Y-54970000D01*
X76250000Y-54970000D02*
X81930000Y-54970000D01*
X69080000Y-54970000D02*
X73610000Y-54970000D01*
X76250000Y-69170000D02*
X81930000Y-69170000D01*
X69080000Y-69170000D02*
X73610000Y-69170000D01*
D14*
X77330000Y-69745000D02*
G75*
G03X77330000Y-69745000I-100000J0D01*
G01*
X77330000Y-86415000D02*
G75*
G03X77330000Y-86415000I-100000J0D01*
G01*
D12*
X69080000Y-85840000D02*
X73610000Y-85840000D01*
X76250000Y-85840000D02*
X81930000Y-85840000D01*
X69080000Y-71640000D02*
X73610000Y-71640000D01*
X76250000Y-71640000D02*
X81930000Y-71640000D01*
X69080000Y-85840000D02*
X69080000Y-71640000D01*
X81930000Y-71640000D02*
X81930000Y-85840000D01*
D14*
X77330000Y-102925000D02*
G75*
G03X77330000Y-102925000I-100000J0D01*
G01*
D12*
X69080000Y-102350000D02*
X73610000Y-102350000D01*
X76250000Y-102350000D02*
X81930000Y-102350000D01*
X69080000Y-88150000D02*
X73610000Y-88150000D01*
X76250000Y-88150000D02*
X81930000Y-88150000D01*
X69080000Y-102350000D02*
X69080000Y-88150000D01*
X81930000Y-88150000D02*
X81930000Y-102350000D01*
D14*
X77330000Y-119435000D02*
G75*
G03X77330000Y-119435000I-100000J0D01*
G01*
D12*
X69080000Y-118860000D02*
X73610000Y-118860000D01*
X76250000Y-118860000D02*
X81930000Y-118860000D01*
X69080000Y-104660000D02*
X73610000Y-104660000D01*
X76250000Y-104660000D02*
X81930000Y-104660000D01*
X69080000Y-118860000D02*
X69080000Y-104660000D01*
X81930000Y-104660000D02*
X81930000Y-118860000D01*
D14*
X77330000Y-135945000D02*
G75*
G03X77330000Y-135945000I-100000J0D01*
G01*
D12*
X69080000Y-135370000D02*
X73610000Y-135370000D01*
X76250000Y-135370000D02*
X81930000Y-135370000D01*
X69080000Y-121170000D02*
X73610000Y-121170000D01*
X76250000Y-121170000D02*
X81930000Y-121170000D01*
X69080000Y-135370000D02*
X69080000Y-121170000D01*
X81930000Y-121170000D02*
X81930000Y-135370000D01*
D14*
X77330000Y-152455000D02*
G75*
G03X77330000Y-152455000I-100000J0D01*
G01*
D12*
X69080000Y-151880000D02*
X73610000Y-151880000D01*
X76250000Y-151880000D02*
X81930000Y-151880000D01*
X69080000Y-137680000D02*
X73610000Y-137680000D01*
X76250000Y-137680000D02*
X81930000Y-137680000D01*
X69080000Y-151880000D02*
X69080000Y-137680000D01*
X81930000Y-137680000D02*
X81930000Y-151880000D01*
D13*
X138660833Y-146050000D02*
G75*
G03X138660833Y-146050000I-1500833J0D01*
G01*
X160020000Y-119955000D02*
X160020000Y-122615000D01*
X160020000Y-119955000D02*
X99000000Y-119955000D01*
X99000000Y-119955000D02*
X99000000Y-122615000D01*
X160020000Y-122615000D02*
X99000000Y-122615000D01*
X162620000Y-122615000D02*
X161290000Y-122615000D01*
X162620000Y-121285000D02*
X162620000Y-122615000D01*
X162620000Y-118745000D02*
X162620000Y-120075000D01*
X162620000Y-120075000D02*
X161290000Y-120075000D01*
X160020000Y-120075000D02*
X99000000Y-120075000D01*
X99000000Y-117415000D02*
X99000000Y-120075000D01*
X160020000Y-117415000D02*
X99000000Y-117415000D01*
X160020000Y-117415000D02*
X160020000Y-120075000D01*
X160020000Y-66615000D02*
X160020000Y-69275000D01*
X160020000Y-66615000D02*
X99000000Y-66615000D01*
X99000000Y-66615000D02*
X99000000Y-69275000D01*
X160020000Y-69275000D02*
X99000000Y-69275000D01*
X162620000Y-69275000D02*
X161290000Y-69275000D01*
X162620000Y-67945000D02*
X162620000Y-69275000D01*
X162620000Y-70485000D02*
X162620000Y-71815000D01*
X162620000Y-71815000D02*
X161290000Y-71815000D01*
X160020000Y-71815000D02*
X99000000Y-71815000D01*
X99000000Y-69155000D02*
X99000000Y-71815000D01*
X160020000Y-69155000D02*
X99000000Y-69155000D01*
X160020000Y-69155000D02*
X160020000Y-71815000D01*
X194370000Y-121285000D02*
X194370000Y-122615000D01*
X194370000Y-122615000D02*
X193040000Y-122615000D01*
X191770000Y-122615000D02*
X189170000Y-122615000D01*
X189170000Y-119955000D02*
X189170000Y-122615000D01*
X191770000Y-119955000D02*
X189170000Y-119955000D01*
X191770000Y-119955000D02*
X191770000Y-122615000D01*
X194370000Y-67945000D02*
X194370000Y-69275000D01*
X194370000Y-69275000D02*
X193040000Y-69275000D01*
X191770000Y-69275000D02*
X189170000Y-69275000D01*
X189170000Y-66615000D02*
X189170000Y-69275000D01*
X191770000Y-66615000D02*
X189170000Y-66615000D01*
X191770000Y-66615000D02*
X191770000Y-69275000D01*
X213360000Y-86935000D02*
X214690000Y-86935000D01*
X214690000Y-86935000D02*
X214690000Y-88265000D01*
X214690000Y-89535000D02*
X214690000Y-104835000D01*
X212030000Y-104835000D02*
X214690000Y-104835000D01*
X212030000Y-89535000D02*
X212030000Y-104835000D01*
X212030000Y-89535000D02*
X214690000Y-89535000D01*
D15*
X163830000Y-132080000D02*
X163830000Y-142240000D01*
X158750000Y-132080000D02*
X163830000Y-132080000D01*
X158750000Y-142240000D02*
X158750000Y-132080000D01*
X163830000Y-142240000D02*
X158750000Y-142240000D01*
X107950000Y-135890000D02*
X120650000Y-135890000D01*
X107950000Y-148590000D02*
X107950000Y-135890000D01*
X120650000Y-148590000D02*
X107950000Y-148590000D01*
X120650000Y-135890000D02*
X120650000Y-148590000D01*
D13*
X138660833Y-153670000D02*
G75*
G03X138660833Y-153670000I-1500833J0D01*
G01*
D15*
X149860000Y-45720000D02*
X160020000Y-45720000D01*
X149860000Y-50800000D02*
X149860000Y-45720000D01*
X160020000Y-50800000D02*
X149860000Y-50800000D01*
X160020000Y-45720000D02*
X160020000Y-50800000D01*
D13*
X193675000Y-133290000D02*
X195005000Y-133290000D01*
X195005000Y-133290000D02*
X195005000Y-134620000D01*
X195005000Y-135890000D02*
X195005000Y-143570000D01*
X192345000Y-143570000D02*
X195005000Y-143570000D01*
X192345000Y-135890000D02*
X192345000Y-143570000D01*
X192345000Y-135890000D02*
X195005000Y-135890000D01*
D15*
X107132380Y-148692380D02*
X106132380Y-148692380D01*
X106846666Y-148359047D01*
X106132380Y-148025714D01*
X107132380Y-148025714D01*
X107037142Y-146978095D02*
X107084761Y-147025714D01*
X107132380Y-147168571D01*
X107132380Y-147263809D01*
X107084761Y-147406666D01*
X106989523Y-147501904D01*
X106894285Y-147549523D01*
X106703809Y-147597142D01*
X106560952Y-147597142D01*
X106370476Y-147549523D01*
X106275238Y-147501904D01*
X106180000Y-147406666D01*
X106132380Y-147263809D01*
X106132380Y-147168571D01*
X106180000Y-147025714D01*
X106227619Y-146978095D01*
X107132380Y-146549523D02*
X106132380Y-146549523D01*
X106132380Y-146168571D01*
X106180000Y-146073333D01*
X106227619Y-146025714D01*
X106322857Y-145978095D01*
X106465714Y-145978095D01*
X106560952Y-146025714D01*
X106608571Y-146073333D01*
X106656190Y-146168571D01*
X106656190Y-146549523D01*
X106227619Y-145597142D02*
X106180000Y-145549523D01*
X106132380Y-145454285D01*
X106132380Y-145216190D01*
X106180000Y-145120952D01*
X106227619Y-145073333D01*
X106322857Y-145025714D01*
X106418095Y-145025714D01*
X106560952Y-145073333D01*
X107132380Y-145644761D01*
X107132380Y-145025714D01*
X106132380Y-144120952D02*
X106132380Y-144597142D01*
X106608571Y-144644761D01*
X106560952Y-144597142D01*
X106513333Y-144501904D01*
X106513333Y-144263809D01*
X106560952Y-144168571D01*
X106608571Y-144120952D01*
X106703809Y-144073333D01*
X106941904Y-144073333D01*
X107037142Y-144120952D01*
X107084761Y-144168571D01*
X107132380Y-144263809D01*
X107132380Y-144501904D01*
X107084761Y-144597142D01*
X107037142Y-144644761D01*
X106132380Y-143168571D02*
X106132380Y-143644761D01*
X106608571Y-143692380D01*
X106560952Y-143644761D01*
X106513333Y-143549523D01*
X106513333Y-143311428D01*
X106560952Y-143216190D01*
X106608571Y-143168571D01*
X106703809Y-143120952D01*
X106941904Y-143120952D01*
X107037142Y-143168571D01*
X107084761Y-143216190D01*
X107132380Y-143311428D01*
X107132380Y-143549523D01*
X107084761Y-143644761D01*
X107037142Y-143692380D01*
X107132380Y-142168571D02*
X107132380Y-142740000D01*
X107132380Y-142454285D02*
X106132380Y-142454285D01*
X106275238Y-142549523D01*
X106370476Y-142644761D01*
X106418095Y-142740000D01*
X107227619Y-141978095D02*
X107227619Y-141216190D01*
X107084761Y-141025714D02*
X107132380Y-140882857D01*
X107132380Y-140644761D01*
X107084761Y-140549523D01*
X107037142Y-140501904D01*
X106941904Y-140454285D01*
X106846666Y-140454285D01*
X106751428Y-140501904D01*
X106703809Y-140549523D01*
X106656190Y-140644761D01*
X106608571Y-140835238D01*
X106560952Y-140930476D01*
X106513333Y-140978095D01*
X106418095Y-141025714D01*
X106322857Y-141025714D01*
X106227619Y-140978095D01*
X106180000Y-140930476D01*
X106132380Y-140835238D01*
X106132380Y-140597142D01*
X106180000Y-140454285D01*
X106132380Y-139835238D02*
X106132380Y-139644761D01*
X106180000Y-139549523D01*
X106275238Y-139454285D01*
X106465714Y-139406666D01*
X106799047Y-139406666D01*
X106989523Y-139454285D01*
X107084761Y-139549523D01*
X107132380Y-139644761D01*
X107132380Y-139835238D01*
X107084761Y-139930476D01*
X106989523Y-140025714D01*
X106799047Y-140073333D01*
X106465714Y-140073333D01*
X106275238Y-140025714D01*
X106180000Y-139930476D01*
X106132380Y-139835238D01*
X107037142Y-138406666D02*
X107084761Y-138454285D01*
X107132380Y-138597142D01*
X107132380Y-138692380D01*
X107084761Y-138835238D01*
X106989523Y-138930476D01*
X106894285Y-138978095D01*
X106703809Y-139025714D01*
X106560952Y-139025714D01*
X106370476Y-138978095D01*
X106275238Y-138930476D01*
X106180000Y-138835238D01*
X106132380Y-138692380D01*
X106132380Y-138597142D01*
X106180000Y-138454285D01*
X106227619Y-138406666D01*
X107132380Y-137978095D02*
X106132380Y-137978095D01*
X107132380Y-137406666D02*
X106560952Y-137835238D01*
X106132380Y-137406666D02*
X106703809Y-137978095D01*
X106608571Y-136978095D02*
X106608571Y-136644761D01*
X107132380Y-136501904D02*
X107132380Y-136978095D01*
X106132380Y-136978095D01*
X106132380Y-136501904D01*
X106132380Y-136216190D02*
X106132380Y-135644761D01*
X107132380Y-135930476D02*
X106132380Y-135930476D01*
G04 #@! TD*
M02*
